<svg width="20" height="20" viewBox="0 0 20 20" fill="none" xmlns="http://www.w3.org/2000/svg">
<path fill-rule="evenodd" clip-rule="evenodd" d="M4.08413 10.7083C4.08413 8.9503 4.7824 7.2643 6.02532 6.0212C7.26824 4.7781 8.95401 4.07974 10.7118 4.07974C12.4695 4.07974 14.1553 4.7781 15.3982 6.0212C16.6411 7.2643 17.3394 8.9503 17.3394 10.7083C17.3394 10.7388 17.3412 10.7693 17.3449 10.7997C17.3423 10.8286 17.3411 10.8576 17.3412 10.8866C17.3476 11.1197 17.3175 11.4809 17.2407 11.8256C17.1584 12.2013 17.0487 12.4171 16.9856 12.4839C16.849 12.6273 16.6854 12.7424 16.5042 12.8226C16.3231 12.9028 16.1279 12.9465 15.9299 12.9513C15.7318 12.956 15.5348 12.9217 15.35 12.8503C15.1652 12.7789 14.9963 12.6718 14.8529 12.5351C14.6637 12.3549 14.6097 12.0898 14.5951 11.4745L14.4891 7.08774C14.4847 6.90588 14.4083 6.7332 14.2766 6.60769C14.1449 6.48218 13.9688 6.41412 13.787 6.41848C13.6052 6.42285 13.4325 6.49928 13.307 6.63096C13.1815 6.76264 13.1135 6.93879 13.1178 7.12065L13.1334 7.75425C12.5515 7.27691 11.8415 6.9821 11.0927 6.90683C10.3439 6.83156 9.58951 6.97917 8.92426 7.33115C8.25901 7.68313 7.71253 8.22379 7.35341 8.88528C6.99428 9.54676 6.83851 10.2996 6.90565 11.0493C6.97279 11.799 7.25983 12.5122 7.73077 13.0993C8.20171 13.6865 8.83555 14.1214 9.55275 14.3495C10.2699 14.5777 11.0385 14.5889 11.7621 14.3817C12.4856 14.1746 13.1319 13.7583 13.6197 13.1851C13.6983 13.3052 13.7943 13.4195 13.9077 13.528C14.4605 14.0548 15.1999 14.3405 15.9633 14.3221C16.7267 14.3038 17.4515 13.9829 17.9784 13.4301C18.3166 13.0754 18.4876 12.5387 18.5799 12.1227C18.6733 11.7063 18.7178 11.2804 18.7125 10.8537L18.707 10.7787L18.7106 10.7083C18.7106 8.89811 18.0967 7.14144 16.9693 5.72532C15.8418 4.3092 14.2675 3.31737 12.5036 2.91186C10.7396 2.50636 8.89033 2.71117 7.25782 3.49282C5.62531 4.27447 4.30611 5.58676 3.51578 7.21526C2.72545 8.84376 2.5107 10.6922 2.90663 12.4586C3.30255 14.2249 4.28575 15.8048 5.69556 16.94C7.10538 18.0752 8.85847 18.6986 10.6684 18.7084C12.4783 18.7182 14.2381 18.1139 15.6601 16.994C15.7983 16.88 15.8864 16.7164 15.9055 16.5382C15.9247 16.36 15.8733 16.1815 15.7624 16.0407C15.6515 15.8999 15.49 15.8082 15.3123 15.785C15.1346 15.7619 14.955 15.8093 14.8118 15.917C13.8343 16.6867 12.6599 17.1658 11.423 17.2993C10.186 17.4328 8.9365 17.2154 7.8173 16.672C6.6981 16.1286 5.75444 15.2811 5.09425 14.2264C4.43406 13.1718 4.08401 11.9526 4.08413 10.7083ZM10.7118 8.25894C10.0622 8.25894 9.43933 8.517 8.98004 8.97634C8.52076 9.43569 8.26274 10.0587 8.26274 10.7083C8.26274 11.3579 8.52076 11.9809 8.98004 12.4403C9.43933 12.8996 10.0622 13.1577 10.7118 13.1577C11.3613 13.1577 11.9842 12.8996 12.4435 12.4403C12.9028 11.9809 13.1608 11.3579 13.1608 10.7083C13.1608 10.0587 12.9028 9.43569 12.4435 8.97634C11.9842 8.517 11.3613 8.25894 10.7118 8.25894Z" fill="#D9D9D9" fill-opacity="0.5"/>
</svg>
