<svg width="28" height="28" viewBox="0 0 28 28" fill="none" xmlns="http://www.w3.org/2000/svg">
<g clip-path="url(#clip0_78_119)">
<path d="M14 27.9999C14.9283 27.9999 15.8185 27.6311 16.4749 26.9748C17.1313 26.3184 17.5 25.4281 17.5 24.4999H10.5C10.5 25.4281 10.8687 26.3184 11.5251 26.9748C12.1815 27.6311 13.0717 27.9999 14 27.9999ZM15.7413 1.92313C15.7657 1.6798 15.7388 1.43405 15.6624 1.20174C15.5861 0.969419 15.4618 0.75569 15.2978 0.574335C15.1337 0.392979 14.9334 0.248024 14.7099 0.148816C14.4864 0.0496086 14.2446 -0.00164795 14 -0.00164795C13.7554 -0.00164795 13.5136 0.0496086 13.2901 0.148816C13.0666 0.248024 12.8663 0.392979 12.7022 0.574335C12.5382 0.75569 12.4139 0.969419 12.3376 1.20174C12.2612 1.43405 12.2343 1.6798 12.2587 1.92313C10.2805 2.32485 8.50191 3.39823 7.22455 4.96136C5.94719 6.5245 5.2496 8.48121 5.25 10.4999C5.25 12.4214 4.375 20.9999 1.75 22.7499H26.25C23.625 20.9999 22.75 12.4214 22.75 10.4999C22.75 6.26488 19.74 2.72988 15.7413 1.92313Z" fill="white"/>
</g>
<defs>
<clipPath id="clip0_78_119">
<rect width="28" height="28" fill="white"/>
</clipPath>
</defs>
</svg>
