<svg width="13" height="17" viewBox="0 0 13 17" fill="none" xmlns="http://www.w3.org/2000/svg">
<path d="M6.18644 3.34709e-09C7.25352 -4.71203e-05 8.27908 0.497498 9.04765 1.3881C9.81622 2.2787 10.268 3.49303 10.308 4.77595L10.3107 4.96203H10.9981C11.345 4.96189 11.679 5.11949 11.9333 5.40323C12.1877 5.68697 12.3434 6.07587 12.3694 6.49198L12.3729 6.61603V14.8861C12.373 15.3034 12.242 15.7053 12.0062 16.0113C11.7703 16.3172 11.4471 16.5047 11.1012 16.536L10.9981 16.5401H1.37476C1.02793 16.5402 0.693867 16.3826 0.439548 16.0989C0.185229 15.8151 0.0294498 15.4262 0.00343706 15.0101L6.89225e-08 14.8861V6.61603C-0.000109692 6.19875 0.130882 5.79683 0.366716 5.49086C0.602551 5.18488 0.925797 4.99746 1.27166 4.96616L1.37476 4.96203H2.06215C2.06215 3.64601 2.49667 2.3839 3.27012 1.45334C4.04358 0.522783 5.09261 3.34709e-09 6.18644 3.34709e-09ZM10.9981 6.61603H1.37476V14.8861H10.9981V6.61603ZM6.18644 8.27004C6.47967 8.27015 6.76519 8.38307 7.00129 8.59228C7.23739 8.8015 7.41171 9.09606 7.49877 9.43295C7.58584 9.76983 7.58109 10.1314 7.48523 10.4648C7.38937 10.7982 7.20741 11.086 6.96593 11.2861L6.87382 11.3564V12.4051C6.87363 12.6159 6.80654 12.8186 6.68627 12.9719C6.566 13.1251 6.40162 13.2174 6.22672 13.2297C6.05183 13.2421 5.87961 13.1736 5.74526 13.0383C5.61091 12.903 5.52456 12.7111 5.50387 12.5018L5.49906 12.4051V11.3564C5.23699 11.1744 5.03217 10.8934 4.91637 10.557C4.80057 10.2206 4.78026 9.84764 4.85858 9.49596C4.93691 9.14427 5.10949 8.83351 5.34958 8.61186C5.58966 8.39021 5.88382 8.27006 6.18644 8.27004ZM6.18644 1.65401C5.45722 1.65401 4.75787 2.00253 4.24223 2.6229C3.72659 3.24328 3.43691 4.08468 3.43691 4.96203H8.93597C8.93597 4.08468 8.64629 3.24328 8.13065 2.6229C7.61501 2.00253 6.91566 1.65401 6.18644 1.65401Z" fill="white"/>
</svg>
