<svg width="28" height="28" viewBox="0 0 28 28" fill="none" xmlns="http://www.w3.org/2000/svg">
<path fill-rule="evenodd" clip-rule="evenodd" d="M1.50727 3.2246C1.58233 3.00006 1.73914 2.81605 1.94322 2.71304C2.14731 2.61002 2.38195 2.59644 2.59556 2.67527L2.93821 2.80213C3.64059 3.06184 4.23596 3.28205 4.70611 3.5238C5.207 3.78351 5.63731 4.10186 5.96061 4.59973C6.28163 5.09281 6.41482 5.63496 6.47516 6.22977L6.48768 6.35902H19.5244C20.4567 6.35902 21.4061 6.35902 22.1882 6.45118C22.5866 6.49785 22.9817 6.57205 23.33 6.70131C23.6715 6.82697 24.0483 7.03402 24.3158 7.40024C24.7507 7.99385 24.827 8.6856 24.786 9.38693C24.7461 10.0547 24.589 10.8853 24.4012 11.8727L24.3898 11.9361L24.3876 11.9409L23.8093 14.897C23.6385 15.7659 23.4951 16.4971 23.3095 17.0752C23.1137 17.6855 22.8428 18.2241 22.3567 18.6406C21.8706 19.0559 21.3139 19.227 20.7049 19.306C20.13 19.3802 19.4185 19.3802 18.5761 19.3802H12.4209C10.8898 19.3802 9.64896 19.3802 8.67223 19.2342C7.6511 19.0822 6.7939 18.7555 6.11884 18.0063C5.49615 17.3169 5.16374 16.5845 4.99754 15.5624C4.84158 14.605 4.82678 13.3507 4.82678 11.613V8.35528C4.82678 7.46965 4.82451 6.87724 4.77783 6.42245C4.7323 5.98801 4.65375 5.7702 4.55016 5.61222C4.45112 5.45783 4.29971 5.31302 3.95365 5.13589C3.58595 4.9468 3.0862 4.7601 2.32576 4.47885L2.02978 4.36994C1.92379 4.33099 1.82615 4.27045 1.74245 4.19178C1.65874 4.11311 1.59062 4.01785 1.54198 3.91147C1.49334 3.80508 1.46514 3.68965 1.45899 3.57179C1.45283 3.45393 1.46999 3.33595 1.50727 3.2246ZM6.53321 8.15422V11.613C6.53321 13.395 6.5537 14.4829 6.6812 15.2596C6.79618 15.9717 6.99312 16.3667 7.3574 16.7712C7.66818 17.1159 8.09735 17.3361 8.91129 17.4569C9.75369 17.5826 10.8739 17.585 12.4858 17.585H18.5238C19.4333 17.585 20.0378 17.5838 20.4977 17.5252C20.9326 17.4689 21.1352 17.3708 21.2775 17.2487C21.4198 17.1266 21.5507 16.9375 21.6919 16.5007C21.8399 16.0399 21.9628 15.4176 22.1472 14.4805L22.7141 11.5843V11.5819C22.9168 10.5167 23.05 9.8082 23.0807 9.27682C23.1103 8.77297 23.0352 8.59584 22.9657 8.4989C22.9045 8.45275 22.8364 8.41756 22.7642 8.39478C22.5154 8.31269 22.259 8.25892 21.9992 8.23441C21.3219 8.15542 20.4636 8.15422 19.4891 8.15422H6.53321ZM6.01184 23.2698C6.01184 23.984 6.28169 24.6689 6.76204 25.1739C7.24239 25.6789 7.89388 25.9626 8.57319 25.9626C9.2525 25.9626 9.90399 25.6789 10.3843 25.1739C10.8647 24.6689 11.1345 23.984 11.1345 23.2698C11.1345 22.5556 10.8647 21.8707 10.3843 21.3657C9.90399 20.8607 9.2525 20.577 8.57319 20.577C7.89388 20.577 7.24239 20.8607 6.76204 21.3657C6.28169 21.8707 6.01184 22.5556 6.01184 23.2698ZM8.57319 24.1674C8.34675 24.1674 8.12959 24.0728 7.96947 23.9045C7.80936 23.7362 7.7194 23.5079 7.7194 23.2698C7.7194 23.0317 7.80936 22.8034 7.96947 22.6351C8.12959 22.4668 8.34675 22.3722 8.57319 22.3722C8.79963 22.3722 9.01679 22.4668 9.17691 22.6351C9.33702 22.8034 9.42697 23.0317 9.42697 23.2698C9.42697 23.5079 9.33702 23.7362 9.17691 23.9045C9.01679 24.0728 8.79963 24.1674 8.57319 24.1674ZM16.2572 23.2698C16.2572 23.6234 16.3235 23.9736 16.4522 24.3003C16.5809 24.627 16.7696 24.9239 17.0075 25.1739C17.2453 25.4239 17.5277 25.6223 17.8384 25.7576C18.1492 25.893 18.4822 25.9626 18.8186 25.9626C19.155 25.9626 19.488 25.893 19.7988 25.7576C20.1095 25.6223 20.3919 25.4239 20.6298 25.1739C20.8676 24.9239 21.0563 24.627 21.185 24.3003C21.3137 23.9736 21.38 23.6234 21.38 23.2698C21.38 22.5556 21.1101 21.8707 20.6298 21.3657C20.1494 20.8607 19.4979 20.577 18.8186 20.577C18.1393 20.577 17.4878 20.8607 17.0075 21.3657C16.5271 21.8707 16.2572 22.5556 16.2572 23.2698ZM18.8186 24.1674C18.5922 24.1674 18.375 24.0728 18.2149 23.9045C18.0548 23.7362 17.9648 23.5079 17.9648 23.2698C17.9648 23.0317 18.0548 22.8034 18.2149 22.6351C18.375 22.4668 18.5922 22.3722 18.8186 22.3722C19.045 22.3722 19.2622 22.4668 19.4223 22.6351C19.5824 22.8034 19.6724 23.0317 19.6724 23.2698C19.6724 23.5079 19.5824 23.7362 19.4223 23.9045C19.2622 24.0728 19.045 24.1674 18.8186 24.1674Z" fill="white"/>
<path d="M15.2833 10.675C15.2833 10.4429 15.1912 10.2204 15.0271 10.0563C14.863 9.89218 14.6404 9.79999 14.4083 9.79999C14.1763 9.79999 13.9537 9.89218 13.7896 10.0563C13.6255 10.2204 13.5333 10.4429 13.5333 10.675V12.1333H12.075C11.8429 12.1333 11.6204 12.2255 11.4563 12.3896C11.2922 12.5537 11.2 12.7763 11.2 13.0083C11.2 13.2404 11.2922 13.4629 11.4563 13.627C11.6204 13.7911 11.8429 13.8833 12.075 13.8833H13.5333V15.3417C13.5333 15.5737 13.6255 15.7963 13.7896 15.9604C13.9537 16.1245 14.1763 16.2167 14.4083 16.2167C14.6404 16.2167 14.863 16.1245 15.0271 15.9604C15.1912 15.7963 15.2833 15.5737 15.2833 15.3417V13.8833H16.7417C16.9737 13.8833 17.1963 13.7911 17.3604 13.627C17.5245 13.4629 17.6167 13.2404 17.6167 13.0083C17.6167 12.7763 17.5245 12.5537 17.3604 12.3896C17.1963 12.2255 16.9737 12.1333 16.7417 12.1333H15.2833V10.675Z" fill="white"/>
</svg>
