<svg width="52" height="52" viewBox="0 0 52 52" fill="none" xmlns="http://www.w3.org/2000/svg">
<path d="M52 26C52 40.3594 40.3594 52 26 52C11.6406 52 0 40.3594 0 26C0 11.6406 11.6406 0 26 0C40.3594 0 52 11.6406 52 26Z" fill="#222328" fill-opacity="0.5"/>
<path d="M20.37 25.9926L30.9754 36.9095C31.0627 36.9975 31.1317 37.1019 31.1784 37.2167C31.2251 37.3316 31.2486 37.4545 31.2475 37.5785C31.2464 37.7024 31.2207 37.8249 31.1719 37.9389C31.1231 38.0528 31.0522 38.156 30.9633 38.2424C30.8744 38.3288 30.7692 38.3966 30.6539 38.4421C30.5386 38.4876 30.4154 38.5097 30.2915 38.5073C30.1675 38.5048 30.0453 38.4778 29.9319 38.4278C29.8184 38.3778 29.716 38.3058 29.6306 38.216L18.3895 26.6449C18.2194 26.4697 18.1243 26.2351 18.1244 25.9909C18.1246 25.7467 18.2201 25.5122 18.3905 25.3374L29.6494 13.7835C29.7349 13.6938 29.8374 13.6219 29.9509 13.5721C30.0644 13.5223 30.1867 13.4955 30.3106 13.4932C30.4346 13.4909 30.5577 13.5133 30.673 13.5589C30.7882 13.6046 30.8933 13.6726 30.9821 13.7591C31.0708 13.8457 31.1416 13.9489 31.1902 14.0629C31.2388 14.177 31.2643 14.2995 31.2652 14.4235C31.2662 14.5474 31.2425 14.6704 31.1956 14.7851C31.1487 14.8999 31.0796 15.0042 30.9921 15.092L20.37 25.9926Z" fill="white"/>
</svg>
