<svg width="35" height="35" viewBox="0 0 35 35" fill="none" xmlns="http://www.w3.org/2000/svg">
<g clip-path="url(#clip0_326_2593)">
<path d="M29.6299 6.35906C27.3606 5.3169 24.9657 4.57351 22.5052 4.1475C22.4829 4.14375 22.46 4.14699 22.4396 4.15678C22.4193 4.16657 22.4024 4.18244 22.3914 4.20219C22.083 4.74906 21.7417 5.46438 21.5033 6.02438C18.8512 5.62223 16.1536 5.62223 13.5014 6.02438C13.2366 5.40003 12.9357 4.79161 12.6002 4.20219C12.5892 4.18244 12.5724 4.16657 12.552 4.15678C12.5316 4.14699 12.5087 4.14375 12.4864 4.1475C10.0255 4.57188 7.63019 5.31563 5.36175 6.35906C5.34224 6.36631 5.32595 6.38027 5.31581 6.39844C0.778937 13.1775 -0.465751 19.7903 0.144561 26.32C0.148936 26.3521 0.164249 26.3791 0.190499 26.4009C2.83293 28.357 5.7878 29.8511 8.92956 30.8197C8.95175 30.8267 8.97558 30.8264 8.99761 30.819C9.01964 30.8115 9.03872 30.7972 9.05206 30.7781C9.72727 29.8594 10.3237 28.8903 10.8414 27.8709C10.8522 27.8499 10.8559 27.826 10.8519 27.8028C10.848 27.7795 10.8366 27.7582 10.8196 27.7419L10.7802 27.7178C9.83816 27.3546 8.92547 26.9195 8.05019 26.4163C8.02575 26.4024 8.00758 26.3797 7.99944 26.3528C7.99129 26.3259 7.9938 26.297 8.00644 26.2719L8.03925 26.2303C8.22446 26.0918 8.40529 25.9496 8.58175 25.8037C8.59721 25.7913 8.61576 25.7833 8.63541 25.7806C8.65506 25.7779 8.67507 25.7806 8.69331 25.7884C14.4224 28.4047 20.6239 28.4047 26.283 25.7884C26.3018 25.7798 26.3227 25.7766 26.3432 25.7793C26.3637 25.782 26.383 25.7905 26.3989 25.8037C26.5754 25.9496 26.7562 26.0918 26.9414 26.2303C26.9568 26.2408 26.9693 26.2551 26.9776 26.2718C26.9859 26.2885 26.9898 26.3071 26.9889 26.3257C26.9881 26.3444 26.9824 26.3625 26.9726 26.3783C26.9627 26.3941 26.949 26.4072 26.9327 26.4163C26.0612 26.9274 25.147 27.3622 24.2005 27.7156C24.1854 27.7211 24.1717 27.7298 24.1604 27.7411C24.149 27.7525 24.1403 27.7662 24.1349 27.7812C24.1295 27.7958 24.1274 27.8113 24.1285 27.8268C24.1296 27.8423 24.134 27.8573 24.1414 27.8709C24.6664 28.8881 25.268 29.8594 25.9286 30.7781C25.942 30.7972 25.961 30.8115 25.9831 30.819C26.0051 30.8264 26.0289 30.8267 26.0511 30.8197C29.1991 29.8565 32.1591 28.362 34.8033 26.4009C34.8164 26.3917 34.8274 26.3796 34.8353 26.3656C34.8433 26.3516 34.848 26.336 34.8492 26.32C35.5799 18.7709 33.6264 12.2128 29.6736 6.40063C29.6702 6.3907 29.6644 6.38175 29.6568 6.37452C29.6492 6.36729 29.64 6.36199 29.6299 6.35906ZM11.6967 22.3431C9.97081 22.3431 8.55112 20.7594 8.55112 18.8169C8.55112 16.8744 9.94456 15.2884 11.6967 15.2884C13.4621 15.2884 14.8686 16.8853 14.8424 18.8169C14.8424 20.7594 13.4489 22.3431 11.6967 22.3431ZM23.3255 22.3431C21.6017 22.3431 20.1799 20.7594 20.1799 18.8169C20.1799 16.8744 21.5733 15.2884 23.3255 15.2884C25.0908 15.2884 26.4996 16.8853 26.4711 18.8169C26.4711 20.7594 25.0908 22.3431 23.3255 22.3431Z" fill="white"/>
</g>
<defs>
<clipPath id="clip0_326_2593">
<rect width="35" height="35" fill="white"/>
</clipPath>
</defs>
</svg>
