<svg width="20" height="20" viewBox="0 0 20 20" fill="none" xmlns="http://www.w3.org/2000/svg">
<g clip-path="url(#clip0_61_93)">
<path d="M16.9313 3.63374C15.6345 3.03822 14.266 2.61343 12.86 2.36999C12.8473 2.36785 12.8342 2.3697 12.8226 2.3753C12.8109 2.38089 12.8013 2.38996 12.795 2.40124C12.6188 2.71374 12.4238 3.12249 12.2875 3.44249C10.772 3.21269 9.23053 3.21269 7.71503 3.44249C7.56368 3.08572 7.39173 2.73805 7.20003 2.40124C7.19375 2.38996 7.18413 2.38089 7.17249 2.3753C7.16085 2.3697 7.14776 2.36785 7.13503 2.36999C5.72878 2.61249 4.36003 3.03749 3.06378 3.63374C3.05263 3.63788 3.04332 3.64586 3.03753 3.65624C0.445028 7.52999 -0.266222 11.3087 0.082528 15.04C0.085028 15.0583 0.093778 15.0737 0.108778 15.0862C1.61874 16.204 3.30723 17.0578 5.10253 17.6112C5.1152 17.6152 5.12883 17.6151 5.14142 17.6108C5.154 17.6066 5.1649 17.5984 5.17253 17.5875C5.55836 17.0625 5.89919 16.5087 6.19503 15.9262C6.20118 15.9142 6.20328 15.9006 6.20103 15.8873C6.19878 15.874 6.19229 15.8618 6.18253 15.8525L6.16003 15.8387C5.62173 15.6312 5.10019 15.3825 4.60003 15.095C4.58607 15.0871 4.57568 15.0741 4.57103 15.0587C4.56637 15.0434 4.56781 15.0268 4.57503 15.0125L4.59378 14.9887C4.69961 14.9096 4.80294 14.8283 4.90378 14.745C4.91261 14.7379 4.92321 14.7333 4.93444 14.7318C4.94567 14.7302 4.95711 14.7318 4.96753 14.7362C8.24128 16.2312 11.785 16.2312 15.0188 14.7362C15.0295 14.7313 15.0414 14.7295 15.0532 14.731C15.0649 14.7326 15.0759 14.7374 15.085 14.745C15.1859 14.8283 15.2892 14.9096 15.395 14.9887C15.4038 14.9948 15.4109 15.0029 15.4157 15.0125C15.4204 15.022 15.4227 15.0326 15.4222 15.0433C15.4217 15.0539 15.4184 15.0643 15.4128 15.0733C15.4072 15.0824 15.3994 15.0898 15.39 15.095C14.892 15.3871 14.3697 15.6355 13.8288 15.8375C13.8202 15.8406 13.8123 15.8456 13.8059 15.8521C13.7994 15.8586 13.7944 15.8664 13.7913 15.875C13.7882 15.8833 13.787 15.8922 13.7876 15.901C13.7883 15.9099 13.7908 15.9185 13.795 15.9262C14.095 16.5075 14.4388 17.0625 14.8163 17.5875C14.8239 17.5984 14.8348 17.6066 14.8474 17.6108C14.86 17.6151 14.8736 17.6152 14.8863 17.6112C16.6851 17.0608 18.3766 16.2069 19.8875 15.0862C19.895 15.0809 19.9013 15.074 19.9058 15.066C19.9104 15.0581 19.9131 15.0492 19.9138 15.04C20.3313 10.7262 19.215 6.97874 16.9563 3.65749C16.9543 3.65182 16.951 3.64671 16.9467 3.64257C16.9423 3.63844 16.937 3.63541 16.9313 3.63374ZM6.68378 12.7675C5.69753 12.7675 4.88628 11.8625 4.88628 10.7525C4.88628 9.64249 5.68253 8.73624 6.68378 8.73624C7.69253 8.73624 8.49628 9.64874 8.48128 10.7525C8.48128 11.8625 7.68503 12.7675 6.68378 12.7675ZM13.3288 12.7675C12.3438 12.7675 11.5313 11.8625 11.5313 10.7525C11.5313 9.64249 12.3275 8.73624 13.3288 8.73624C14.3375 8.73624 15.1425 9.64874 15.1263 10.7525C15.1263 11.8625 14.3375 12.7675 13.3288 12.7675Z" fill="white"/>
</g>
<defs>
<clipPath id="clip0_61_93">
<rect width="20" height="20" fill="white"/>
</clipPath>
</defs>
</svg>
