<svg width="22" height="22" viewBox="0 0 22 22" fill="none" xmlns="http://www.w3.org/2000/svg">
<path d="M1.52144 11.033L1.53541 3.51815L4.88426 3.52438L5.05339 3.50579C8.16368 2.82277 10.2248 2.32995 11.2521 2.02421C12.6167 1.6183 13.1253 1.51949 14.0505 1.46241C14.7424 1.41855 15.5278 1.67306 15.8852 2.02023C16.0827 2.21169 16.2301 2.60467 16.2875 3.21378C16.2993 3.34154 16.3471 3.46393 16.4259 3.5681C16.5046 3.67227 16.6115 3.75437 16.7352 3.80576C17.0101 3.91967 17.2386 4.1049 17.4293 4.37406C17.6057 4.62009 17.7198 5.0781 17.7395 5.74069C17.7428 5.86254 17.7788 5.98158 17.8442 6.08647C17.9096 6.19136 18.0022 6.2786 18.1131 6.33988C18.7557 6.69493 19.0732 7.09452 19.1387 7.56294C19.2107 8.08073 19.0327 8.66315 18.5684 9.32589C18.4595 9.48132 18.4187 9.671 18.4546 9.8546C18.4906 10.0382 18.6006 10.2012 18.7611 10.3091C19.2038 10.606 19.4461 11.018 19.5058 11.6019C19.6014 12.5324 18.9756 13.219 17.5618 13.3539C16.3026 13.4704 15.0315 13.3673 13.8112 13.0498C13.6728 13.0152 13.5268 13.0188 13.3905 13.0603C13.2541 13.1018 13.1331 13.1794 13.0417 13.284C12.9502 13.3886 12.8921 13.5159 12.8742 13.6508C12.8563 13.7858 12.8794 13.9228 12.9406 14.0457C13.4912 15.1576 13.7967 16.0748 13.8673 16.7848C13.9594 17.7268 13.7294 18.4089 13.1934 18.9707C12.787 19.3962 12.1378 19.6386 11.8947 19.5878C11.5743 19.5221 11.3658 19.3453 11.095 18.7274C10.9355 18.3617 10.8587 18.0507 10.7274 17.3249C10.6016 16.6359 10.5325 16.325 10.3885 15.9173C9.95422 14.6817 8.88563 13.3997 7.44937 12.514C6.44194 11.8954 5.35086 11.4095 4.20598 11.0695C4.13433 11.0487 4.05989 11.038 3.98499 11.0376L1.52144 11.033ZM1.49165 2.08691C1.13468 2.0768 0.814023 2.1518 0.545121 2.3298C0.202076 2.55702 0.0400444 2.91582 0.0359595 3.32951L0.0249777 11.0187C-0.0133616 11.4281 0.113041 11.8042 0.413144 12.0841C0.69449 12.3471 1.0623 12.4717 1.45136 12.464L3.86628 12.4685C4.84262 12.766 5.77319 13.185 6.63368 13.7148C7.79064 14.4288 8.64198 15.451 8.96631 16.3714C9.07735 16.6887 9.13655 16.9513 9.24813 17.5689C9.39911 18.3977 9.49345 18.7832 9.71136 19.2792C10.1626 20.3111 10.7563 20.8163 11.576 20.9868C12.3825 21.1542 13.5582 20.7144 14.3024 19.9345C15.1274 19.0709 15.493 17.989 15.3607 16.651C15.3035 16.0769 15.1375 15.4312 14.8625 14.7139C15.8059 14.8464 16.7628 14.8679 17.7117 14.778C19.9303 14.5669 21.1784 13.1969 21.0004 11.4619C20.9222 10.7142 20.6382 10.0784 20.154 9.57874C20.5632 8.83295 20.727 8.0951 20.6267 7.37461C20.5111 6.54489 20.026 5.85309 19.218 5.31503C19.1564 4.58727 18.9817 4.00629 18.6709 3.57101C18.4252 3.21995 18.1055 2.92116 17.7319 2.69356C17.6139 1.97514 17.3641 1.41292 16.9548 1.01736C16.2763 0.358798 15.0623 -0.0351107 13.9526 0.0342256C12.8991 0.0994685 12.2756 0.220109 10.8048 0.658377C9.83497 0.947423 7.82697 1.42669 4.80071 2.09307L1.49165 2.08691ZM3.35441 11.363C3.35394 11.4569 3.37299 11.55 3.41047 11.6369C3.44795 11.7239 3.50311 11.8029 3.57281 11.8696C3.6425 11.9363 3.72535 11.9892 3.81661 12.0254C3.90787 12.0616 4.00575 12.0803 4.10463 12.0805C4.20333 12.0804 4.30103 12.0618 4.39217 12.0258C4.48331 11.9899 4.5661 11.9372 4.63581 11.8708C4.70551 11.8045 4.76078 11.7257 4.79844 11.639C4.8361 11.5524 4.85542 11.4595 4.85531 11.3657L4.8703 3.30385C4.87062 3.21009 4.8515 3.11718 4.81402 3.03043C4.77655 2.94368 4.72146 2.86479 4.65189 2.79826C4.58233 2.73173 4.49966 2.67887 4.4086 2.64269C4.31754 2.60651 4.21987 2.58773 4.12118 2.5874C4.02248 2.58736 3.92475 2.60578 3.83355 2.64162C3.74236 2.67746 3.65949 2.73001 3.58968 2.79628C3.51987 2.86255 3.46449 2.94124 3.42669 3.02785C3.38889 3.11446 3.36943 3.2073 3.3694 3.30106L3.35441 11.363Z" fill="#D9D9D9"/>
</svg>
