<svg width="52" height="52" viewBox="0 0 52 52" fill="none" xmlns="http://www.w3.org/2000/svg">
<path d="M52 26C52 40.3594 40.3594 52 26 52C11.6406 52 0 40.3594 0 26C0 11.6406 11.6406 0 26 0C40.3594 0 52 11.6406 52 26Z" fill="#222328" fill-opacity="0.5"/>
<path d="M20.3693 25.9926L30.9747 36.9095C31.062 36.9975 31.131 37.1019 31.1777 37.2167C31.2244 37.3316 31.2479 37.4545 31.2468 37.5785C31.2456 37.7024 31.22 37.8249 31.1712 37.9389C31.1224 38.0528 31.0515 38.156 30.9626 38.2424C30.8737 38.3288 30.7685 38.3966 30.6532 38.4421C30.5379 38.4876 30.4147 38.5097 30.2907 38.5073C30.1668 38.5048 30.0446 38.4778 29.9312 38.4278C29.8177 38.3778 29.7153 38.3058 29.6299 38.216L18.3888 26.6449C18.2187 26.4697 18.1236 26.2351 18.1237 25.9909C18.1239 25.7467 18.2194 25.5122 18.3898 25.3374L29.6487 13.7835C29.7342 13.6938 29.8367 13.6219 29.9502 13.5721C30.0637 13.5223 30.186 13.4955 30.3099 13.4932C30.4339 13.4909 30.557 13.5133 30.6723 13.5589C30.7875 13.6046 30.8926 13.6726 30.9814 13.7591C31.0701 13.8457 31.1409 13.9489 31.1895 14.0629C31.2381 14.177 31.2636 14.2995 31.2645 14.4235C31.2655 14.5474 31.2418 14.6704 31.1949 14.7851C31.148 14.8999 31.0789 15.0042 30.9914 15.092L20.3693 25.9926Z" fill="white"/>
</svg>
