<svg width="24" height="24" viewBox="0 0 24 24" fill="none" xmlns="http://www.w3.org/2000/svg">
<path d="M1.5 6.75C1.5 5.75544 1.89509 4.80161 2.59835 4.09835C3.30161 3.39509 4.25544 3 5.25 3H18.75C19.7446 3 20.6984 3.39509 21.4016 4.09835C22.1049 4.80161 22.5 5.75544 22.5 6.75V17.25C22.5 18.2446 22.1049 19.1984 21.4016 19.9016C20.6984 20.6049 19.7446 21 18.75 21H5.25C4.25544 21 3.30161 20.6049 2.59835 19.9016C1.89509 19.1984 1.5 18.2446 1.5 17.25V6.75ZM7.578 10.059C8.2995 9.984 8.8575 10.113 9.057 10.2135C9.14541 10.2612 9.24249 10.2906 9.34249 10.3C9.44248 10.3095 9.54336 10.2987 9.63913 10.2685C9.73489 10.2382 9.8236 10.189 9.89999 10.1237C9.97637 10.0585 10.0389 9.97861 10.0838 9.88878C10.1287 9.79894 10.1551 9.70099 10.1615 9.60075C10.1678 9.50051 10.154 9.40001 10.1207 9.30523C10.0875 9.21044 10.0356 9.1233 9.96803 9.04896C9.90048 8.97463 9.81868 8.91462 9.7275 8.8725C9.201 8.6085 8.3355 8.472 7.422 8.568C5.982 8.718 4.5 9.969 4.5 12.0135C4.5 14.091 6.081 15.4635 7.95 15.4635C8.82 15.4635 9.6 15.054 10.0455 14.634C10.4385 14.262 10.5 13.767 10.5 13.4595V12.0135C10.5 11.8146 10.421 11.6238 10.2803 11.4832C10.1397 11.3425 9.94891 11.2635 9.75 11.2635H8.5395C8.34059 11.2635 8.14982 11.3425 8.00917 11.4832C7.86852 11.6238 7.7895 11.8146 7.7895 12.0135C7.7895 12.2124 7.86852 12.4032 8.00917 12.5438C8.14982 12.6845 8.34059 12.7635 8.5395 12.7635H9V13.458C9.00026 13.4942 8.99725 13.5303 8.991 13.566C8.69851 13.8115 8.3317 13.951 7.95 13.962C6.8535 13.962 6 13.206 6 12.012C6 10.7865 6.8505 10.1355 7.578 10.059ZM13.5 9.315C13.5 9.11609 13.421 8.92532 13.2803 8.78467C13.1397 8.64402 12.9489 8.565 12.75 8.565C12.5511 8.565 12.3603 8.64402 12.2197 8.78467C12.079 8.92532 12 9.11609 12 9.315V14.715C12 14.9139 12.079 15.1047 12.2197 15.2453C12.3603 15.386 12.5511 15.465 12.75 15.465C12.9489 15.465 13.1397 15.386 13.2803 15.2453C13.421 15.1047 13.5 14.9139 13.5 14.715V9.315ZM15.75 8.565C15.5511 8.565 15.3603 8.64402 15.2197 8.78467C15.079 8.92532 15 9.11609 15 9.315V14.715C15 14.9139 15.079 15.1047 15.2197 15.2453C15.3603 15.386 15.5511 15.465 15.75 15.465C15.9489 15.465 16.1397 15.386 16.2803 15.2453C16.421 15.1047 16.5 14.9139 16.5 14.715V12.7575L18.0045 12.7485C18.2034 12.7473 18.3937 12.6671 18.5335 12.5256C18.6733 12.3842 18.7512 12.1929 18.75 11.994C18.7488 11.7951 18.6686 11.6048 18.5271 11.465C18.3857 11.3252 18.1944 11.2473 17.9955 11.2485L16.5 11.259V10.0635H18.75C18.9489 10.0635 19.1397 9.98448 19.2803 9.84383C19.421 9.70318 19.5 9.51241 19.5 9.3135C19.5 9.11459 19.421 8.92382 19.2803 8.78317C19.1397 8.64252 18.9489 8.5635 18.75 8.5635L15.75 8.565Z" fill="white" fill-opacity="0.5"/>
</svg>
