<svg width="28" height="28" viewBox="0 0 28 28" fill="none" xmlns="http://www.w3.org/2000/svg">
<path d="M25.7895 19.297C26.3572 19.2973 26.903 19.5018 27.3138 19.8682C27.7247 20.2347 27.9691 20.7349 27.9964 21.2652C28.0236 21.7956 27.8317 22.3154 27.4604 22.717C27.089 23.1186 26.5667 23.3712 26.0017 23.4225L25.7895 23.4321H2.21053C1.64284 23.4319 1.09702 23.2273 0.686167 22.8609C0.275316 22.4945 0.0309296 21.9943 0.00364846 21.4639C-0.0236327 20.9336 0.168283 20.4137 0.539627 20.0121C0.910971 19.6105 1.43328 19.3579 1.99832 19.3067L2.21053 19.297H25.7895ZM25.7895 9.64852C26.3757 9.64852 26.938 9.86635 27.3526 10.2541C27.7671 10.6418 28 11.1677 28 11.7161C28 12.2644 27.7671 12.7903 27.3526 13.178C26.938 13.5658 26.3757 13.7836 25.7895 13.7836H2.21053C1.62426 13.7836 1.062 13.5658 0.647448 13.178C0.232894 12.7903 0 12.2644 0 11.7161C0 11.1677 0.232894 10.6418 0.647448 10.2541C1.062 9.86635 1.62426 9.64852 2.21053 9.64852H25.7895ZM25.7895 0C26.3757 0 26.938 0.21783 27.3526 0.605568C27.7671 0.993307 28 1.51919 28 2.06754C28 2.61589 27.7671 3.14177 27.3526 3.52951C26.938 3.91725 26.3757 4.13508 25.7895 4.13508H2.21053C1.62426 4.13508 1.062 3.91725 0.647448 3.52951C0.232894 3.14177 0 2.61589 0 2.06754C0 1.51919 0.232894 0.993307 0.647448 0.605568C1.062 0.21783 1.62426 0 2.21053 0H25.7895Z" fill="white"/>
</svg>
