<svg width="30" height="30" viewBox="0 0 30 30" fill="none" xmlns="http://www.w3.org/2000/svg">
<path fill-rule="evenodd" clip-rule="evenodd" d="M7.27417 7.29838C7.44996 7.12282 7.68824 7.02421 7.93668 7.02421C8.18511 7.02421 8.42339 7.12282 8.59918 7.29838L15.4367 14.1359L22.2742 7.29838C22.36 7.20628 22.4635 7.1324 22.5785 7.08116C22.6935 7.02992 22.8176 7.00237 22.9435 7.00015C23.0694 6.99792 23.1944 7.02108 23.3112 7.06823C23.4279 7.11538 23.534 7.18556 23.623 7.27459C23.712 7.36361 23.7822 7.46965 23.8293 7.58639C23.8765 7.70312 23.8996 7.82816 23.8974 7.95404C23.8952 8.07992 23.8676 8.20406 23.8164 8.31906C23.7652 8.43406 23.6913 8.53756 23.5992 8.62339L16.7617 15.4609L23.5992 22.2984C23.6913 22.3842 23.7652 22.4877 23.8164 22.6027C23.8676 22.7177 23.8952 22.8419 23.8974 22.9677C23.8996 23.0936 23.8765 23.2186 23.8293 23.3354C23.7822 23.4521 23.712 23.5582 23.623 23.6472C23.534 23.7362 23.4279 23.8064 23.3112 23.8535C23.1944 23.9007 23.0694 23.9238 22.9435 23.9216C22.8176 23.9194 22.6935 23.8919 22.5785 23.8406C22.4635 23.7894 22.36 23.7155 22.2742 23.6234L15.4367 16.7859L8.59918 23.6234C8.42146 23.789 8.1864 23.8791 7.94352 23.8749C7.70065 23.8706 7.46891 23.7722 7.29715 23.6004C7.12538 23.4286 7.02699 23.1969 7.02271 22.954C7.01842 22.7112 7.10857 22.4761 7.27417 22.2984L14.1117 15.4609L7.27417 8.62339C7.09861 8.4476 7 8.20932 7 7.96089C7 7.71245 7.09861 7.47417 7.27417 7.29838Z" fill="white"/>
</svg>
