<svg width="34" height="34" viewBox="0 0 34 34" fill="none" xmlns="http://www.w3.org/2000/svg">
<path d="M28.5 10.0833H24.25V5.83333C24.25 4.27075 22.9792 3 21.4167 3H12.9167C11.3541 3 10.0833 4.27075 10.0833 5.83333V10.0833H5.83333C4.27075 10.0833 3 11.3541 3 12.9167V21.4167C3 22.9792 4.27075 24.25 5.83333 24.25H10.0833V28.5C10.0833 30.0626 11.3541 31.3333 12.9167 31.3333H21.4167C22.9792 31.3333 24.25 30.0626 24.25 28.5V24.25H28.5C30.0626 24.25 31.3333 22.9792 31.3333 21.4167V12.9167C31.3333 11.3541 30.0626 10.0833 28.5 10.0833ZM28.5 21.4167H21.4167V27.0833H21.4181V28.5H12.9167V21.4167H5.83333V12.9167H12.9167V5.83333H21.4167V12.9167H28.5V21.4167Z" fill="white"/>
<path d="M11.3333 19.8333V14.1667L7.08333 17L11.3333 19.8333ZM22.6667 19.8333L26.9167 17L22.6667 14.1667V19.8333ZM14.1667 11.3333H19.8333L17 7.08334L14.1667 11.3333ZM17 26.9167L19.8333 22.6667H14.1667L17 26.9167Z" fill="white"/>
<path d="M17 19.8333C18.5648 19.8333 19.8333 18.5648 19.8333 17C19.8333 15.4352 18.5648 14.1667 17 14.1667C15.4352 14.1667 14.1667 15.4352 14.1667 17C14.1667 18.5648 15.4352 19.8333 17 19.8333Z" fill="white"/>
</svg>
