<svg width="21" height="21" viewBox="0 0 21 21" fill="none" xmlns="http://www.w3.org/2000/svg">
<path d="M1.5029 9.96978V17.4846H4.85175L5.02085 17.5035C8.12987 18.1923 10.19 18.689 11.2168 18.9966C12.5806 19.4051 13.089 19.5048 14.0141 19.5636C14.706 19.6088 15.4918 19.3557 15.8499 19.0092C16.0478 18.8181 16.1959 18.4254 16.2544 17.8164C16.2664 17.6887 16.3145 17.5664 16.3934 17.4624C16.4724 17.3584 16.5794 17.2765 16.7032 17.2253C16.9784 17.1119 17.2071 16.9271 17.3983 16.6583C17.5752 16.4126 17.6901 15.9548 17.7111 15.2922C17.7146 15.1704 17.7509 15.0514 17.8165 14.9467C17.882 14.8419 17.9748 14.7548 18.0858 14.6937C18.729 14.3399 19.0474 13.9409 19.1137 13.4726C19.1866 12.9549 19.0098 12.3722 18.5467 11.7086C18.438 11.553 18.3976 11.3632 18.4339 11.1797C18.4702 10.9961 18.5805 10.8333 18.7412 10.7258C19.1844 10.4297 19.4276 10.0181 19.4883 9.43428C19.5856 8.50398 18.9611 7.81623 17.5476 7.67868C16.2886 7.55991 15.0173 7.66061 13.7964 7.97583C13.6579 8.01022 13.5119 8.00631 13.3757 7.96456C13.2394 7.92282 13.1186 7.84497 13.0273 7.74018C12.9361 7.63539 12.8782 7.50803 12.8605 7.37306C12.8429 7.23809 12.8662 7.10115 12.9277 6.97833C13.4803 5.86743 13.7876 4.95078 13.8594 4.24098C13.9533 3.29912 13.7246 2.61662 13.1896 2.05382C12.784 1.62752 12.1352 1.38392 11.8921 1.43432C11.5716 1.49942 11.3627 1.67582 11.0908 2.29322C10.9305 2.65862 10.8532 2.96942 10.7205 3.69497C10.5934 4.38378 10.5238 4.69458 10.379 5.10198C9.94245 6.33678 8.87148 7.61673 7.43358 8.49978C6.425 9.11652 5.33302 9.60044 4.18751 9.93828C4.11582 9.95889 4.04136 9.9695 3.96646 9.96978H1.5029ZM1.45648 18.9158C1.09949 18.9252 0.778975 18.8496 0.510404 18.6711C0.167782 18.4433 0.00641804 18.0842 0.00310235 17.6705L0.00641804 9.98133C-0.0311598 9.57183 0.0959418 9.19593 0.396565 8.91663C0.678399 8.65413 1.04644 8.53023 1.43548 8.53863H3.85041C4.82731 8.24298 5.75865 7.82565 6.62012 7.29753C7.77841 6.58563 8.63165 5.56503 8.95769 4.64523C9.06932 4.32813 9.129 4.06563 9.24174 3.44822C9.39426 2.61977 9.48931 2.23442 9.70814 1.73882C10.1613 0.70772 10.7559 0.20372 11.576 0.0346694C12.3828 -0.131231 13.5577 0.31082 14.3004 1.09202C15.1238 1.95722 15.4874 3.03977 15.3526 4.37748C15.2944 4.95148 15.1271 5.59688 14.8508 6.31368C15.7944 6.18294 16.7514 6.16319 17.7001 6.25488C19.9183 6.47013 21.1639 7.84248 20.9826 9.57708C20.903 10.3247 20.6179 10.9599 20.1327 11.4587C20.5405 12.2052 20.703 12.9434 20.6013 13.6637C20.4842 14.4932 19.9979 15.1841 19.1888 15.7206C19.1258 16.4483 18.9501 17.0289 18.6384 17.4636C18.3921 17.8142 18.0718 18.1124 17.6979 18.3393C17.5785 19.0575 17.3276 19.6193 16.9176 20.0141C16.2379 20.6714 15.0232 21.0631 13.9135 20.9917C12.8603 20.9244 12.2369 20.8027 10.767 20.3616C9.79767 20.0708 7.79057 19.5878 4.76555 18.9158H1.45648ZM3.33648 9.64323C3.33619 9.54929 3.35542 9.45622 3.39305 9.36935C3.43069 9.28248 3.48601 9.20352 3.55582 9.137C3.62564 9.07048 3.70859 9.01769 3.79992 8.98168C3.89125 8.94567 3.98916 8.92713 4.08804 8.92713C4.18673 8.92741 4.28441 8.94615 4.37548 8.98228C4.46655 9.01842 4.54924 9.07125 4.61882 9.13774C4.68841 9.20424 4.74352 9.2831 4.78102 9.36984C4.81852 9.45657 4.83768 9.54947 4.83739 9.64323V17.7051C4.83753 17.7989 4.81824 17.8918 4.7806 17.9785C4.74297 18.0651 4.68773 18.1439 4.61804 18.2103C4.54836 18.2767 4.46559 18.3294 4.37446 18.3654C4.28333 18.4015 4.18563 18.4201 4.08693 18.4202C3.98824 18.4201 3.89054 18.4015 3.79941 18.3654C3.70828 18.3294 3.62551 18.2767 3.55583 18.2103C3.48614 18.1439 3.4309 18.0651 3.39327 17.9785C3.35563 17.8918 3.33634 17.7989 3.33648 17.7051V9.64323Z" fill="#D9D9D9"/>
</svg>
