<svg width="37" height="32" viewBox="0 0 37 32" fill="none" xmlns="http://www.w3.org/2000/svg">
<path d="M1 5.28571C1 4.14907 1.40972 3.05898 2.13903 2.25526C2.86834 1.45153 3.85749 1 4.88889 1H32.1111C33.1425 1 34.1317 1.45153 34.861 2.25526C35.5903 3.05898 36 4.14907 36 5.28571V26.7143C36 27.8509 35.5903 28.941 34.861 29.7447C34.1317 30.5485 33.1425 31 32.1111 31H4.88889C3.85749 31 2.86834 30.5485 2.13903 29.7447C1.40972 28.941 1 27.8509 1 26.7143V5.28571Z" stroke="white" stroke-width="1.16667" stroke-linecap="round" stroke-linejoin="round"/>
<path d="M1 5.28571L18.5 18.1428L36 5.28571" stroke="white" stroke-width="1.16667" stroke-linecap="round" stroke-linejoin="round"/>
</svg>
