<svg width="30" height="30" viewBox="0 0 30 30" fill="none" xmlns="http://www.w3.org/2000/svg">
<g clip-path="url(#clip0_324_603)">
<path fill-rule="evenodd" clip-rule="evenodd" d="M28.125 9.84375C28.125 10.2167 27.9768 10.5744 27.7131 10.8381C27.4494 11.1018 27.0917 11.25 26.7188 11.25C26.3458 11.25 25.9881 11.1018 25.7244 10.8381C25.4607 10.5744 25.3125 10.2167 25.3125 9.84375V6.675L19.275 12.7125C19.1463 12.8507 18.991 12.9615 18.8185 13.0383C18.646 13.1152 18.4598 13.1565 18.271 13.1599C18.0822 13.1632 17.8946 13.1285 17.7195 13.0577C17.5444 12.987 17.3853 12.8817 17.2518 12.7482C17.1183 12.6147 17.013 12.4556 16.9423 12.2805C16.8715 12.1054 16.8368 11.9178 16.8401 11.729C16.8435 11.5402 16.8848 11.354 16.9617 11.1815C17.0385 11.009 17.1493 10.8537 17.2875 10.725L23.325 4.6875H20.1562C19.7833 4.6875 19.4256 4.53934 19.1619 4.27562C18.8982 4.0119 18.75 3.65421 18.75 3.28125C18.75 2.90829 18.8982 2.5506 19.1619 2.28688C19.4256 2.02316 19.7833 1.875 20.1562 1.875H28.125V9.84375ZM7.14375 25.3125L12.7125 19.7437C12.8507 19.615 12.9615 19.4598 13.0383 19.2873C13.1152 19.1148 13.1565 18.9285 13.1599 18.7397C13.1632 18.5509 13.1285 18.3634 13.0577 18.1883C12.987 18.0132 12.8817 17.8541 12.7482 17.7206C12.6147 17.587 12.4556 17.4817 12.2805 17.411C12.1054 17.3403 11.9178 17.3056 11.729 17.3089C11.5402 17.3122 11.354 17.3536 11.1815 17.4304C11.009 17.5073 10.8537 17.6181 10.725 17.7563L4.6875 23.7937V20.1562C4.6875 19.7833 4.53934 19.4256 4.27562 19.1619C4.0119 18.8982 3.65421 18.75 3.28125 18.75C2.90829 18.75 2.5506 18.8982 2.28688 19.1619C2.02316 19.4256 1.875 19.7833 1.875 20.1562V28.125H9.84375C10.2167 28.125 10.5744 27.9768 10.8381 27.7131C11.1018 27.4494 11.25 27.0917 11.25 26.7188C11.25 26.3458 11.1018 25.9881 10.8381 25.7244C10.5744 25.4607 10.2167 25.3125 9.84375 25.3125H7.14375Z" fill="white"/>
<path fill-rule="evenodd" clip-rule="evenodd" d="M1.875 9.84375C1.875 10.2167 2.02316 10.5744 2.28688 10.8381C2.55061 11.1018 2.90829 11.25 3.28125 11.25C3.65421 11.25 4.01189 11.1018 4.27562 10.8381C4.53934 10.5744 4.6875 10.2167 4.6875 9.84375V6.675L10.725 12.7125C10.8537 12.8507 11.009 12.9615 11.1815 13.0383C11.354 13.1152 11.5402 13.1565 11.729 13.1599C11.9178 13.1632 12.1054 13.1285 12.2805 13.0577C12.4556 12.987 12.6147 12.8817 12.7482 12.7482C12.8817 12.6147 12.987 12.4556 13.0577 12.2805C13.1285 12.1054 13.1632 11.9178 13.1599 11.729C13.1565 11.5402 13.1152 11.354 13.0383 11.1815C12.9615 11.009 12.8507 10.8537 12.7125 10.725L6.675 4.6875H9.84375C10.2167 4.6875 10.5744 4.53934 10.8381 4.27562C11.1018 4.0119 11.25 3.65421 11.25 3.28125C11.25 2.90829 11.1018 2.5506 10.8381 2.28688C10.5744 2.02316 10.2167 1.875 9.84375 1.875H1.875V9.84375ZM22.8563 25.3125L17.2875 19.7437C17.1493 19.615 17.0385 19.4598 16.9617 19.2873C16.8848 19.1148 16.8435 18.9285 16.8401 18.7397C16.8368 18.5509 16.8715 18.3634 16.9423 18.1883C17.013 18.0132 17.1183 17.8541 17.2518 17.7206C17.3853 17.587 17.5444 17.4817 17.7195 17.411C17.8946 17.3403 18.0822 17.3056 18.271 17.3089C18.4598 17.3122 18.646 17.3536 18.8185 17.4304C18.991 17.5073 19.1463 17.6181 19.275 17.7563L25.3125 23.7937V20.1562C25.3125 19.7833 25.4607 19.4256 25.7244 19.1619C25.9881 18.8982 26.3458 18.75 26.7188 18.75C27.0917 18.75 27.4494 18.8982 27.7131 19.1619C27.9768 19.4256 28.125 19.7833 28.125 20.1562V28.125H20.1562C19.7833 28.125 19.4256 27.9768 19.1619 27.7131C18.8982 27.4494 18.75 27.0917 18.75 26.7188C18.75 26.3458 18.8982 25.9881 19.1619 25.7244C19.4256 25.4607 19.7833 25.3125 20.1562 25.3125H22.8563Z" fill="white"/>
</g>
<defs>
<clipPath id="clip0_324_603">
<rect width="30" height="30" fill="white"/>
</clipPath>
</defs>
</svg>
