<svg width="56" height="78" viewBox="0 0 56 78" fill="none" xmlns="http://www.w3.org/2000/svg">
<path d="M33.625 0.328125H22.375C16.5961 0.334639 11.0558 2.63318 6.96947 6.71948C2.88318 10.8058 0.584639 16.3461 0.578125 22.125V55.875C0.584639 61.6539 2.88318 67.1942 6.96947 71.2805C11.0558 75.3668 16.5961 77.6654 22.375 77.6719H33.625C39.4039 77.6654 44.9442 75.3668 49.0305 71.2805C53.1168 67.1942 55.4154 61.6539 55.4219 55.875V22.125C55.4154 16.3461 53.1168 10.8058 49.0305 6.71948C44.9442 2.63318 39.4039 0.334639 33.625 0.328125ZM51.2031 22.125V31.2656H30.1094V4.54688H33.625C38.2853 4.55246 42.7531 6.40623 46.0484 9.70155C49.3438 12.9969 51.1975 17.4647 51.2031 22.125ZM22.375 4.54688H25.8906V31.2656H4.79688V22.125C4.80246 17.4647 6.65623 12.9969 9.95156 9.70155C13.2469 6.40623 17.7147 4.55246 22.375 4.54688ZM33.625 73.4531H22.375C17.7147 73.4475 13.2469 71.5938 9.95156 68.2984C6.65623 65.0031 4.80246 60.5353 4.79688 55.875V35.4844H51.2031V55.875C51.1975 60.5353 49.3438 65.0031 46.0484 68.2984C42.7531 71.5938 38.2853 73.4475 33.625 73.4531Z" fill="white"/>
</svg>
