<svg width="90" height="90" viewBox="0 0 90 90" fill="none" xmlns="http://www.w3.org/2000/svg">
<path d="M50.625 5.625H39.375C33.4096 5.63151 27.6904 8.00413 23.4723 12.2223C19.2541 16.4404 16.8815 22.1596 16.875 28.125V61.875C16.8815 67.8404 19.2541 73.5596 23.4723 77.7777C27.6904 81.9959 33.4096 84.3685 39.375 84.375H50.625C56.5904 84.3685 62.3096 81.9959 66.5277 77.7777C70.7459 73.5596 73.1185 67.8404 73.125 61.875V28.125C73.1185 22.1596 70.7459 16.4404 66.5277 12.2223C62.3096 8.00413 56.5904 5.63151 50.625 5.625ZM67.5 28.125V36.5625H45V11.25H50.625C55.0991 11.2547 59.3886 13.034 62.5523 16.1977C65.716 19.3614 67.4953 23.6509 67.5 28.125ZM50.625 78.75H39.375C34.9009 78.7453 30.6114 76.966 27.4477 73.8023C24.284 70.6386 22.5047 66.3491 22.5 61.875V42.1875H67.5V61.875C67.4953 66.3491 65.716 70.6386 62.5523 73.8023C59.3886 76.966 55.0991 78.7453 50.625 78.75Z" fill="white"/>
</svg>
