<svg width="53" height="40" viewBox="0 0 53 40" fill="none" xmlns="http://www.w3.org/2000/svg">
<path fill-rule="evenodd" clip-rule="evenodd" d="M35.3695 11.232C35.6395 11.0623 35.9876 10.9805 36.3375 11.0045C36.6873 11.0285 37.0102 11.1564 37.2351 11.36L46.0676 19.36C46.2826 19.5645 46.3831 19.8244 46.3477 20.084C46.3122 20.3437 46.1436 20.5827 45.8779 20.7498C45.6122 20.9169 45.2704 20.999 44.9255 20.9785C44.5807 20.9579 44.2602 20.8365 44.0324 20.64L35.1999 12.64C34.9751 12.4363 34.8667 12.1735 34.8985 11.9095C34.9303 11.6455 35.0998 11.4018 35.3695 11.232Z" fill="white"/>
<path fill-rule="evenodd" clip-rule="evenodd" d="M35.3695 28.768C35.0998 28.5982 34.9303 28.3545 34.8985 28.0905C34.8667 27.8265 34.9751 27.5637 35.1999 27.36L44.0324 19.36C44.1422 19.2556 44.2786 19.1687 44.4335 19.1046C44.5885 19.0406 44.7588 19.0005 44.9346 18.9868C45.1103 18.9732 45.2879 18.9862 45.4569 19.0251C45.6259 19.064 45.7829 19.128 45.9186 19.2133C46.0543 19.2987 46.1661 19.4037 46.2472 19.5221C46.3284 19.6406 46.3774 19.7701 46.3913 19.903C46.4051 20.0359 46.3837 20.1696 46.3281 20.2962C46.2725 20.4227 46.1839 20.5396 46.0676 20.64L37.2351 28.64C37.0102 28.8436 36.6873 28.9715 36.3375 28.9955C35.9876 29.0195 35.6395 28.9377 35.3695 28.768Z" fill="white"/>
<path fill-rule="evenodd" clip-rule="evenodd" d="M9.275 19H43.725C44.0764 19 44.4134 19.1054 44.6619 19.2929C44.9104 19.4804 45.05 19.7348 45.05 20C45.05 20.2652 44.9104 20.5196 44.6619 20.7071C44.4134 20.8946 44.0764 21 43.725 21H9.275C8.92359 21 8.58657 20.8946 8.33809 20.7071C8.0896 20.5196 7.95 20.2652 7.95 20C7.95 19.7348 8.0896 19.4804 8.33809 19.2929C8.58657 19.1054 8.92359 19 9.275 19Z" fill="white"/>
<path fill-rule="evenodd" clip-rule="evenodd" d="M17.6305 28.768C17.3605 28.9377 17.0124 29.0195 16.6625 28.9955C16.3127 28.9715 15.9898 28.8436 15.7649 28.64L6.9324 20.64C6.7174 20.4355 6.61689 20.1756 6.65234 19.916C6.68778 19.6563 6.85638 19.4173 7.12212 19.2502C7.38785 19.0831 7.72964 19.001 8.07447 19.0215C8.41931 19.042 8.73984 19.1635 8.9676 19.36L17.8001 27.36C18.0249 27.5637 18.1333 27.8265 18.1015 28.0905C18.0697 28.3545 17.9002 28.5982 17.6305 28.768Z" fill="white"/>
<path fill-rule="evenodd" clip-rule="evenodd" d="M17.6305 11.232C17.9002 11.4018 18.0697 11.6455 18.1015 11.9095C18.1333 12.1735 18.0249 12.4363 17.8001 12.64L8.9676 20.64C8.73984 20.8365 8.41931 20.9579 8.07447 20.9785C7.72964 20.999 7.38785 20.9169 7.12212 20.7498C6.85638 20.5827 6.68778 20.3437 6.65234 20.084C6.61689 19.8244 6.7174 19.5645 6.9324 19.36L15.7649 11.36C15.9898 11.1564 16.3127 11.0285 16.6625 11.0045C17.0124 10.9805 17.3605 11.0623 17.6305 11.232ZM11.925 20C11.925 19.7348 12.0646 19.4804 12.3131 19.2929C12.5616 19.1053 12.8986 19 13.25 19H34.45C34.8014 19 35.1384 19.1053 35.3869 19.2929C35.6354 19.4804 35.775 19.7348 35.775 20C35.775 20.2652 35.6354 20.5196 35.3869 20.7071C35.1384 20.8946 34.8014 21 34.45 21H13.25C12.8986 21 12.5616 20.8946 12.3131 20.7071C12.0646 20.5196 11.925 20.2652 11.925 20Z" fill="white"/>
</svg>
