<svg width="80" height="80" viewBox="0 0 80 80" fill="none" xmlns="http://www.w3.org/2000/svg">
<path d="M65.68 40L37.3767 10.91C37.1436 10.6756 36.9594 10.3972 36.8346 10.0911C36.7098 9.78503 36.647 9.45721 36.6497 9.12666C36.6525 8.79611 36.7207 8.46939 36.8506 8.1654C36.9804 7.86141 37.1693 7.58619 37.4062 7.35566C37.6431 7.12514 37.9234 6.94388 38.2308 6.8224C38.5382 6.70091 38.8667 6.64159 39.1972 6.64788C39.5277 6.65418 39.8537 6.72595 40.1563 6.85905C40.4589 6.99216 40.732 7.18395 40.96 7.42332L70.96 38.2567C71.4141 38.7234 71.6681 39.3488 71.6681 40C71.6681 40.6511 71.4141 41.2766 70.96 41.7433L40.96 72.5767C40.732 72.816 40.4589 73.0078 40.1563 73.1409C39.8537 73.274 39.5277 73.3458 39.1972 73.3521C38.8667 73.3584 38.5382 73.2991 38.2308 73.1776C37.9234 73.0561 37.6431 72.8748 37.4062 72.6443C37.1693 72.4138 36.9804 72.1386 36.8506 71.8346C36.7207 71.5306 36.6525 71.2039 36.6497 70.8733C36.647 70.5428 36.7098 70.2149 36.8346 69.9088C36.9594 69.6027 37.1436 69.3244 37.3767 69.09L65.68 40Z" fill="white"/>
</svg>
