<svg width="80" height="80" viewBox="0 0 80 80" fill="none" xmlns="http://www.w3.org/2000/svg">
<path d="M14.32 40L42.6267 10.91C42.8597 10.6756 43.044 10.3972 43.1688 10.0911C43.2935 9.78503 43.3564 9.45721 43.3536 9.12666C43.3509 8.79611 43.2826 8.46939 43.1528 8.1654C43.0229 7.86141 42.8341 7.58619 42.5971 7.35566C42.3602 7.12514 42.0799 6.94388 41.7725 6.8224C41.4651 6.70091 41.1366 6.64159 40.8061 6.64788C40.4756 6.65418 40.1496 6.72595 39.8471 6.85905C39.5445 6.99216 39.2713 7.18395 39.0433 7.42332L9.04334 38.2567C8.58926 38.7234 8.33521 39.3488 8.33521 40C8.33521 40.6511 8.58926 41.2766 9.04334 41.7433L39.0433 72.5767C39.2713 72.816 39.5445 73.0078 39.8471 73.1409C40.1496 73.274 40.4756 73.3458 40.8061 73.3521C41.1366 73.3584 41.4651 73.2991 41.7725 73.1776C42.0799 73.0561 42.3602 72.8748 42.5971 72.6443C42.8341 72.4138 43.0229 72.1386 43.1528 71.8346C43.2826 71.5306 43.3509 71.2039 43.3536 70.8733C43.3564 70.5428 43.2935 70.2149 43.1688 69.9088C43.044 69.6027 42.8597 69.3244 42.6267 69.09L14.32 40Z" fill="white"/>
</svg>
