<svg width="34" height="42" viewBox="0 0 34 42" fill="none" xmlns="http://www.w3.org/2000/svg">
<path d="M17 8.49922e-09C19.9323 -0.000119652 22.7505 1.26329 24.8624 3.52478C26.9744 5.78627 28.2158 8.86979 28.3258 12.1275L28.3333 12.6H30.2222C31.1753 12.5997 32.0933 12.9999 32.7921 13.7203C33.491 14.4408 33.9191 15.4284 33.9906 16.485L34 16.8V37.8C34.0003 38.8596 33.6403 39.8802 32.9923 40.6572C32.3442 41.4341 31.456 41.91 30.5056 41.9895L30.2222 42H3.77778C2.82469 42.0003 1.90671 41.6001 1.20785 40.8797C0.509 40.1592 0.0809265 39.1716 0.00944485 38.115L1.89395e-07 37.8V16.8C-0.000301427 15.7404 0.359657 14.7198 1.00772 13.9428C1.65578 13.1659 2.54404 12.69 3.49444 12.6105L3.77778 12.6H5.66667C5.66667 9.25827 6.86071 6.05341 8.98612 3.69045C11.1115 1.3275 13.9942 8.49922e-09 17 8.49922e-09ZM30.2222 16.8H3.77778V37.8H30.2222V16.8ZM17 21C17.8058 21.0003 18.5904 21.287 19.2392 21.8183C19.888 22.3495 20.367 23.0975 20.6062 23.9529C20.8455 24.8084 20.8324 25.7265 20.569 26.5731C20.3056 27.4197 19.8056 28.1505 19.142 28.6587L18.8889 28.8372V31.5C18.8884 32.0352 18.704 32.5501 18.3735 32.9393C18.043 33.3285 17.5913 33.5627 17.1107 33.5941C16.6301 33.6254 16.1568 33.4516 15.7876 33.108C15.4185 32.7645 15.1812 32.2772 15.1243 31.7457L15.1111 31.5V28.8372C14.391 28.3749 13.8281 27.6613 13.5099 26.8072C13.1917 25.953 13.1359 25.006 13.3511 24.1129C13.5663 23.2199 14.0406 22.4308 14.7003 21.868C15.3601 21.3051 16.1684 21 17 21ZM17 4.2C14.9961 4.2 13.0744 5.085 11.6574 6.6603C10.2405 8.23561 9.44444 10.3722 9.44444 12.6H24.5556C24.5556 10.3722 23.7595 8.23561 22.3426 6.6603C20.9256 5.085 19.0039 4.2 17 4.2Z" fill="white"/>
</svg>
