<svg width="52" height="52" viewBox="0 0 52 52" fill="none" xmlns="http://www.w3.org/2000/svg">
<path d="M52 26C52 40.3594 40.3594 52 26 52C11.6406 52 0 40.3594 0 26C0 11.6406 11.6406 0 26 0C40.3594 0 52 11.6406 52 26Z" fill="#222328" fill-opacity="0.5"/>
<path d="M31.63 26L21.0163 15.0913C20.9289 15.0033 20.8598 14.899 20.813 14.7842C20.7662 14.6694 20.7426 14.5465 20.7437 14.4225C20.7447 14.2986 20.7703 14.176 20.819 14.062C20.8677 13.948 20.9385 13.8448 21.0273 13.7584C21.1162 13.6719 21.2213 13.604 21.3366 13.5584C21.4519 13.5129 21.575 13.4906 21.699 13.493C21.8229 13.4953 21.9451 13.5222 22.0586 13.5722C22.1721 13.6221 22.2745 13.694 22.36 13.7838L33.61 25.3463C33.7803 25.5213 33.8756 25.7558 33.8756 26C33.8756 26.2442 33.7803 26.4787 33.61 26.6538L22.36 38.2163C22.2745 38.306 22.1721 38.3779 22.0586 38.4279C21.9451 38.4778 21.8229 38.5047 21.699 38.507C21.575 38.5094 21.4519 38.4872 21.3366 38.4416C21.2213 38.396 21.1162 38.3281 21.0273 38.2416C20.9385 38.1552 20.8677 38.052 20.819 37.938C20.7703 37.824 20.7447 37.7015 20.7437 37.5775C20.7426 37.4535 20.7662 37.3306 20.813 37.2158C20.8598 37.101 20.9289 36.9967 21.0163 36.9088L31.63 26Z" fill="white"/>
</svg>
