<svg width="52" height="52" viewBox="0 0 52 52" fill="none" xmlns="http://www.w3.org/2000/svg">
<path d="M52 26C52 40.3594 40.3594 52 26 52C11.6406 52 0 40.3594 0 26C0 11.6406 11.6406 0 26 0C40.3594 0 52 11.6406 52 26Z" fill="#222328" fill-opacity="0.5"/>
<path d="M31.6305 26L21.0168 15.0913C20.9294 15.0033 20.8603 14.899 20.8135 14.7842C20.7667 14.6694 20.7431 14.5465 20.7442 14.4225C20.7452 14.2986 20.7708 14.176 20.8195 14.062C20.8682 13.948 20.939 13.8448 21.0279 13.7584C21.1167 13.6719 21.2218 13.604 21.3371 13.5584C21.4524 13.5129 21.5755 13.4906 21.6995 13.493C21.8234 13.4953 21.9457 13.5222 22.0591 13.5722C22.1726 13.6221 22.275 13.694 22.3605 13.7838L33.6105 25.3463C33.7808 25.5213 33.8761 25.7558 33.8761 26C33.8761 26.2442 33.7808 26.4787 33.6105 26.6538L22.3605 38.2163C22.275 38.306 22.1726 38.3779 22.0591 38.4279C21.9457 38.4778 21.8234 38.5047 21.6995 38.507C21.5755 38.5094 21.4524 38.4872 21.3371 38.4416C21.2218 38.396 21.1167 38.3281 21.0279 38.2416C20.939 38.1552 20.8682 38.052 20.8195 37.938C20.7708 37.824 20.7452 37.7015 20.7442 37.5775C20.7431 37.4535 20.7667 37.3306 20.8135 37.2158C20.8603 37.101 20.9294 36.9967 21.0168 36.9088L31.6305 26Z" fill="white"/>
</svg>
