<svg width="30" height="30" viewBox="0 0 30 30" fill="none" xmlns="http://www.w3.org/2000/svg">
<g clip-path="url(#clip0_817_1464)">
<path d="M24.7615 10.4466C24.7611 10.2969 24.7577 10.1471 24.7513 9.9975V1.50627L22.514 3.85377C20.6827 1.50209 17.897 0 14.7767 0C11.5295 0 8.64473 1.62615 6.82129 4.14467L10.4887 8.03287C10.8477 7.33682 11.3564 6.73806 11.9743 6.28402C12.6146 5.75988 13.5217 5.33115 14.7767 5.33115C14.9283 5.33115 15.0454 5.34984 15.1313 5.38475C16.6862 5.51361 18.034 6.41385 18.8275 7.72057L16.2314 10.4442C19.5196 10.4307 23.2341 10.4228 24.7613 10.446" fill="#1C3AA9"/>
<path d="M14.7187 0.000610352C14.5759 0.00103118 14.4332 0.00459754 14.2906 0.0113071H6.19738L8.43484 2.35881C6.1934 4.28004 4.76172 7.20282 4.76172 10.4765C4.76172 13.8835 6.31164 16.9102 8.71211 18.8234L12.418 14.9757C11.7546 14.5989 11.1839 14.0652 10.7512 13.4169C10.2516 12.7452 9.84297 11.7933 9.84297 10.4766C9.84297 10.3177 9.86078 10.1948 9.89406 10.1046C10.0169 8.47328 10.8749 7.05922 12.1204 6.22672L14.7163 8.95032C14.7034 5.50032 14.6958 1.60315 14.7181 0.000856253" fill="#4285F4"/>
<path d="M4.76172 10.476C4.76211 10.6264 4.76551 10.7762 4.77191 10.9252V19.4164L7.00938 17.0689C8.84055 19.4206 11.6263 20.9227 14.7466 20.9227C17.9938 20.9227 20.8786 19.2965 22.7022 16.778L19.0348 12.8898C18.6757 13.5859 18.167 14.1846 17.5491 14.6387C16.9089 15.1628 16.0016 15.5915 14.7467 15.5915C14.5952 15.5915 14.4781 15.5728 14.3921 15.5378C12.8372 15.4091 11.4895 14.5087 10.696 13.2021L13.2919 10.4784C10.0036 10.4919 6.28914 10.4999 4.76195 10.4766" fill="white"/>
<path d="M6.44684 24.9797C6.20363 24.9797 5.98559 25.028 5.7927 25.1248C5.60131 25.2183 5.43332 25.3573 5.30203 25.5307C5.17 25.7067 5.06832 25.9201 4.99699 26.1708C4.92777 26.4194 4.89316 26.6977 4.89316 27.0057V27.8934C4.89316 28.2034 4.92777 28.4828 4.99699 28.7314C5.06824 28.9799 5.16891 29.1922 5.29898 29.3683C5.42891 29.5442 5.58613 29.6794 5.77066 29.774C5.95512 29.8687 6.1627 29.916 6.3934 29.916C6.63035 29.916 6.83793 29.8797 7.01613 29.8071C7.19644 29.7346 7.34738 29.63 7.46895 29.4936C7.59059 29.355 7.68391 29.1879 7.74891 28.9921C7.81602 28.7962 7.85586 28.5741 7.86844 28.3255H7.2866C7.27191 28.5169 7.24676 28.6808 7.21113 28.8172C7.17543 28.9514 7.12301 29.0625 7.05387 29.1504C6.98676 29.2362 6.89867 29.3 6.78961 29.3418C6.68266 29.3814 6.55059 29.4012 6.3934 29.4012C6.22566 29.4012 6.08309 29.3627 5.96566 29.2857C5.84824 29.2066 5.75285 29.0988 5.67949 28.9623C5.60824 28.8259 5.55582 28.6664 5.52223 28.4839C5.49074 28.3014 5.475 28.1045 5.475 27.8932V26.999C5.475 26.7725 5.49387 26.5668 5.5316 26.3819C5.57144 26.1972 5.63121 26.0399 5.7109 25.9102C5.79059 25.7804 5.89125 25.6803 6.01289 25.6098C6.13445 25.5373 6.2791 25.501 6.44684 25.501C6.58738 25.501 6.70793 25.523 6.80848 25.567C6.90926 25.6088 6.99312 25.6748 7.06008 25.765C7.12727 25.8529 7.17863 25.9651 7.21418 26.1015C7.24988 26.2379 7.27402 26.4007 7.2866 26.5898H7.86844C7.85797 26.3303 7.81918 26.1005 7.75207 25.9002C7.68488 25.7 7.59156 25.5318 7.47211 25.3954C7.35258 25.259 7.20688 25.1556 7.035 25.0852C6.86516 25.0148 6.6691 24.9798 6.44684 24.9797ZM20.65 24.9796C20.4067 24.9796 20.1886 25.0279 19.9957 25.1246C19.8043 25.2182 19.6363 25.3572 19.505 25.5306C19.373 25.7066 19.2713 25.92 19.2 26.1707C19.1309 26.4193 19.0963 26.6976 19.0963 27.0055V27.8932C19.0963 28.2033 19.1309 28.4827 19.2 28.7313C19.2712 28.9798 19.3719 29.1921 19.502 29.3682C19.6319 29.5441 19.7891 29.6793 19.9737 29.7739C20.1582 29.8686 20.3658 29.9159 20.5964 29.9159C20.8334 29.9159 21.0409 29.8796 21.2191 29.807C21.3995 29.7344 21.5504 29.6299 21.6721 29.4934C21.7936 29.3549 21.8868 29.1877 21.9519 28.9919C22.0191 28.7961 22.0589 28.5739 22.0714 28.3254H21.4896C21.4749 28.5168 21.4498 28.6807 21.4141 28.8171C21.3785 28.9513 21.3261 29.0623 21.2569 29.1503C21.1898 29.2361 21.1017 29.2999 20.9927 29.3417C20.8857 29.3813 20.7536 29.4011 20.5964 29.4011C20.4287 29.4011 20.2861 29.3626 20.1687 29.2855C20.0513 29.2064 19.9559 29.0987 19.8825 28.9622C19.8113 28.8258 19.7588 28.6663 19.7252 28.4838C19.6938 28.3012 19.6781 28.1043 19.6781 27.8931V26.9989C19.6781 26.7723 19.697 26.5666 19.7347 26.3818C19.7746 26.1971 19.8343 26.0398 19.914 25.91C19.9937 25.7803 20.0943 25.6802 20.2159 25.6097C20.3375 25.5371 20.4822 25.5009 20.6498 25.5009C20.7905 25.5009 20.9111 25.5229 21.0116 25.5669C21.1121 25.6087 21.196 25.6747 21.2632 25.7648C21.3302 25.8528 21.3816 25.965 21.4173 26.1014C21.453 26.2378 21.4771 26.4005 21.4896 26.5897H22.0714C22.061 26.3302 22.0222 26.1003 21.9551 25.9001C21.8879 25.6999 21.7946 25.5316 21.6751 25.3953C21.5556 25.2589 21.4099 25.1555 21.238 25.085C21.0682 25.0147 20.8721 24.9795 20.6498 24.9794M9.76184 25.0455L8.28691 29.85H8.87813L9.23355 28.596H10.7809L11.1425 29.85H11.7339L10.2557 25.0457L9.76184 25.0455ZM12.3564 25.0455V29.8498H12.9319V27.9689H13.8156C14.0357 27.9689 14.2307 27.937 14.4006 27.8732C14.5704 27.8072 14.713 27.7126 14.8283 27.5894C14.9457 27.4662 15.0338 27.3144 15.0925 27.134C15.1534 26.9515 15.1838 26.7447 15.1837 26.5137C15.1837 26.3003 15.1533 26.1045 15.0925 25.9264C15.0339 25.746 14.9469 25.5909 14.8315 25.4612C14.7162 25.3291 14.5725 25.2268 14.4006 25.1543C14.2307 25.0816 14.0357 25.0453 13.8156 25.0453L12.3564 25.0455ZM15.624 25.0455V25.5668H16.8254V29.8498H17.4008V25.5668H18.6055V25.0455H15.624ZM22.8482 25.0455V29.8498H23.4236V27.629H25.2667V29.8498H25.8454V25.0455H25.2667V27.111H23.4237V25.0455H22.8482ZM28.0279 25.0455L26.5529 29.8498H27.1443L27.4996 28.5958H29.0469L29.4087 29.8498H30L28.5218 25.0455H28.0279ZM12.9318 25.5668H13.8156C13.9561 25.5668 14.0756 25.5932 14.1742 25.6459C14.2747 25.6988 14.3565 25.7692 14.4195 25.8572C14.4859 25.9483 14.534 26.0527 14.5609 26.1639C14.5924 26.2783 14.6081 26.3971 14.6081 26.5204C14.6081 26.6568 14.5924 26.7822 14.5609 26.8966C14.534 27.0038 14.4858 27.1039 14.4195 27.1902C14.3565 27.2716 14.2747 27.3354 14.1741 27.3815C14.0756 27.4278 13.9561 27.4509 13.8155 27.4509H12.9319L12.9318 25.5668ZM10.007 25.8901L10.6329 28.0745H9.38449L10.007 25.8901ZM28.2732 25.8901L28.899 28.0745H27.6505L28.2732 25.8901ZM1.18242 26.2135C1.03766 26.2135 0.912891 26.252 0.808125 26.3291C0.705391 26.4061 0.619453 26.5106 0.550313 26.6425L0.54082 26.2795H0V29.8498H0.556641V27.2957C0.609141 27.1439 0.683594 27.024 0.78 26.9361C0.878438 26.848 1.00316 26.804 1.15418 26.804C1.20246 26.804 1.24543 26.8062 1.28309 26.8107C1.32098 26.8128 1.36188 26.8183 1.40578 26.8271L1.40273 26.2596C1.38959 26.2535 1.37583 26.2491 1.36172 26.2463C1.34336 26.2392 1.32447 26.2337 1.30523 26.2298C1.2834 26.2252 1.26133 26.222 1.23914 26.22C1.22052 26.2159 1.20157 26.2136 1.18254 26.2134L1.18242 26.2135ZM3.05367 26.2135C2.89227 26.2135 2.73605 26.2432 2.58504 26.3026C2.4341 26.3621 2.29992 26.4599 2.1825 26.5962C2.06719 26.7305 1.97391 26.9065 1.90266 27.1242C1.83133 27.3398 1.79566 27.6049 1.79566 27.9194V28.322C1.79566 28.5948 1.82609 28.8312 1.88695 29.0314C1.94766 29.2316 2.03465 29.3978 2.14793 29.5297C2.26368 29.6597 2.40701 29.7592 2.56629 29.8201C2.72973 29.8839 2.91316 29.9158 3.1166 29.9158C3.26332 29.9158 3.39438 29.9004 3.50977 29.8696C3.62711 29.8388 3.7309 29.7992 3.82113 29.7508C3.90552 29.7045 3.98376 29.6469 4.05387 29.5793C4.1156 29.5193 4.17143 29.453 4.22051 29.3813L3.93117 29.0117C3.88508 29.0712 3.83582 29.1261 3.7834 29.1766C3.7309 29.225 3.67324 29.268 3.61043 29.3053C3.54471 29.3417 3.47497 29.3694 3.40277 29.3878C3.31936 29.4086 3.23384 29.4186 3.14812 29.4176C2.89016 29.4176 2.69199 29.3307 2.55363 29.1569C2.41738 28.9832 2.34926 28.7049 2.34926 28.3221V28.2395H4.24887V27.8996C4.24887 27.6268 4.22684 27.386 4.18277 27.1771C4.13871 26.9681 4.06848 26.7921 3.97207 26.6491C3.87819 26.5084 3.75002 26.3967 3.60094 26.3257C3.45 26.2509 3.26758 26.2135 3.05367 26.2135ZM3.05367 26.7151C3.17531 26.7151 3.27598 26.7382 3.35566 26.7843C3.43449 26.8297 3.4998 26.8971 3.54434 26.979C3.59254 27.0626 3.62715 27.1627 3.64816 27.2793C3.67121 27.3937 3.68586 27.5202 3.69211 27.6588V27.738H2.35242C2.36086 27.5378 2.38391 27.3717 2.42156 27.2396C2.45937 27.1077 2.50867 27.0032 2.56945 26.9262C2.63234 26.8471 2.70469 26.7921 2.78648 26.7612C2.87236 26.7297 2.96281 26.714 3.05379 26.715" fill="white"/>
</g>
<defs>
<clipPath id="clip0_817_1464">
<rect width="30" height="30" fill="white"/>
</clipPath>
</defs>
</svg>
