<svg width="76" height="42" viewBox="0 0 76 42" fill="none" xmlns="http://www.w3.org/2000/svg">
<path d="M41.25 21H41.2331M33.7669 21H33.75M19.71 13.125H19.6912M3.75 21C3.75 29.6975 11.1431 36.75 20.2612 36.75C24.8869 36.75 29.0681 34.9352 32.0662 32.0127C33.2662 30.8402 33.8662 30.2558 33.7312 29.2985C33.5944 28.3413 32.7244 27.8618 30.9844 26.9028L29.5631 26.1205C25.4325 23.8455 23.3662 22.708 23.3662 21C23.3662 19.292 25.4325 18.1528 29.5631 15.8795L30.9844 15.0955C32.7244 14.1383 33.5944 13.6605 33.7312 12.7015C33.8681 11.7442 33.2681 11.158 32.0662 9.98725C29.0681 7.06475 24.8869 5.25 20.2612 5.25C11.1431 5.25 3.75 12.3025 3.75 21Z" stroke="#7949FF" stroke-width="1.5" stroke-linecap="round" stroke-linejoin="round"/>
<path d="M56.9679 17.15H56.9531M66.7969 17.15H66.7821M75 17.15C75 13.9939 73.6172 10.9671 71.1558 8.73543C68.6944 6.50375 65.356 5.25 61.875 5.25C58.394 5.25 55.0556 6.50375 52.5942 8.73543C50.1328 10.9671 48.75 13.9939 48.75 17.15V32.62C48.75 33.2512 49.0266 33.8566 49.5188 34.3029C50.0111 34.7492 50.6788 35 51.375 35C52.0712 35 52.7389 34.7492 53.2312 34.3029C53.7234 33.8566 54 33.2512 54 32.62V31.43C54 30.7988 54.2766 30.1934 54.7688 29.7471C55.2611 29.3007 55.9288 29.05 56.625 29.05C57.3212 29.05 57.9889 29.3007 58.4812 29.7471C58.9734 30.1934 59.25 30.7988 59.25 31.43V32.62C59.25 33.2512 59.5266 33.8566 60.0188 34.3029C60.5111 34.7492 61.1788 35 61.875 35C62.5712 35 63.2389 34.7492 63.7312 34.3029C64.2234 33.8566 64.5 33.2512 64.5 32.62V31.43C64.5 30.7988 64.7766 30.1934 65.2688 29.7471C65.7611 29.3007 66.4288 29.05 67.125 29.05C67.8212 29.05 68.4889 29.3007 68.9812 29.7471C69.4734 30.1934 69.75 30.7988 69.75 31.43V32.62C69.75 33.2512 70.0266 33.8566 70.5188 34.3029C71.0111 34.7492 71.6788 35 72.375 35C73.0712 35 73.7389 34.7492 74.2312 34.3029C74.7234 33.8566 75 33.2512 75 32.62V17.15Z" stroke="#2ECC71" stroke-width="1.5" stroke-linecap="round" stroke-linejoin="round"/>
</svg>
