<svg width="14" height="13" viewBox="0 0 14 13" fill="none" xmlns="http://www.w3.org/2000/svg">
<path d="M1 2.57525C1 2.15746 1.14484 1.75679 1.40266 1.46138C1.66048 1.16596 2.01015 1 2.37476 1H11.9981C12.3627 1 12.7124 1.16596 12.9702 1.46138C13.228 1.75679 13.3729 2.15746 13.3729 2.57525V10.4515C13.3729 10.8693 13.228 11.2699 12.9702 11.5653C12.7124 11.8608 12.3627 12.0267 11.9981 12.0267H2.37476C2.01015 12.0267 1.66048 11.8608 1.40266 11.5653C1.14484 11.2699 1 10.8693 1 10.4515V2.57525Z" stroke="white" stroke-width="1.16667" stroke-linecap="round" stroke-linejoin="round"/>
<path d="M1 2.57526L7.18644 7.30099L13.3729 2.57526" stroke="white" stroke-width="1.16667" stroke-linecap="round" stroke-linejoin="round"/>
</svg>
