<svg version="1.2" xmlns="http://www.w3.org/2000/svg" viewBox="0 0 58 80" width="58" height="80">
	<title>Mouse-left-click-svg</title>
	<style>
		.s0 { fill: #ffffff } 
	</style>
	<path fill-rule="evenodd" class="s0" d="m50.5 7.2c4.2 4.2 6.6 10 6.6 15.9v33.8c0 5.9-2.4 11.7-6.6 15.9-4.2 4.2-9.9 6.6-15.9 6.6h-11.2c-6 0-11.7-2.4-15.9-6.6-4.2-4.2-6.6-10-6.6-15.9v-33.8c0-5.9 2.4-11.7 6.6-15.9 4.2-4.2 9.9-6.6 15.9-6.6h11.2c6 0 11.7 2.4 15.9 6.6zm-3.9 4c-3.2-3.2-7.5-4.9-12-5h-5.6v25.4h22.5v-8.5c0-4.4-1.8-8.7-4.9-11.9zm0 57.6c3.1-3.2 4.9-7.5 4.9-11.9v-19.7h-45v19.7c0 4.4 1.8 8.7 4.9 11.9 3.2 3.2 7.5 4.9 12 5h11.2c4.5-0.1 8.8-1.8 12-5z"/>
</svg>