<svg width="16" height="16" viewBox="0 0 16 16" fill="none" xmlns="http://www.w3.org/2000/svg">
<path d="M8.22 6L10.3333 8.10667V8C10.3333 7.46957 10.1226 6.96086 9.74755 6.58579C9.37247 6.21071 8.86377 6 8.33333 6H8.22ZM5.35333 6.53333L6.38667 7.56667C6.35333 7.70667 6.33333 7.84667 6.33333 8C6.33333 8.53043 6.54405 9.03914 6.91912 9.41421C7.29419 9.78929 7.8029 10 8.33333 10C8.48 10 8.62667 9.98 8.76667 9.94667L9.8 10.98C9.35333 11.2 8.86 11.3333 8.33333 11.3333C7.44928 11.3333 6.60143 10.9821 5.97631 10.357C5.35119 9.7319 5 8.88406 5 8C5 7.47333 5.13333 6.98 5.35333 6.53333ZM1.66667 2.84667L3.18667 4.36667L3.48667 4.66667C2.38667 5.53333 1.52 6.66667 1 8C2.15333 10.9267 5 13 8.33333 13C9.36667 13 10.3533 12.8 11.2533 12.44L11.54 12.72L13.4867 14.6667L14.3333 13.82L2.51333 2M8.33333 4.66667C9.21739 4.66667 10.0652 5.01786 10.6904 5.64298C11.3155 6.2681 11.6667 7.11595 11.6667 8C11.6667 8.42667 11.58 8.84 11.4267 9.21333L13.38 11.1667C14.38 10.3333 15.18 9.24 15.6667 8C14.5133 5.07333 11.6667 3 8.33333 3C7.4 3 6.50667 3.16667 5.66667 3.46667L7.11333 4.9C7.49333 4.75333 7.9 4.66667 8.33333 4.66667Z" fill="#D9D9D9" fill-opacity="0.5"/>
</svg>
