<svg width="16" height="16" viewBox="0 0 16 16" fill="none" xmlns="http://www.w3.org/2000/svg">
<path d="M8 11.6C7.28799 11.6 6.59196 11.3889 5.99995 10.9933C5.40793 10.5977 4.94651 10.0355 4.67403 9.37765C4.40156 8.71984 4.33027 7.996 4.46917 7.29767C4.60808 6.59934 4.95095 5.95788 5.45442 5.45441C5.95788 4.95094 6.59934 4.60807 7.29767 4.46917C7.99601 4.33026 8.71985 4.40155 9.37766 4.67403C10.0355 4.9465 10.5977 5.40792 10.9933 5.99994C11.3889 6.59196 11.6 7.28798 11.6 7.99999C11.6 8.95477 11.2207 9.87045 10.5456 10.5456C9.87045 11.2207 8.95478 11.6 8 11.6ZM8 2.39999C2.4 2.39999 0 7.99999 0 7.99999C0 7.99999 2.4 13.6 8 13.6C13.6 13.6 16 7.99999 16 7.99999C16 7.99999 13.6 2.39999 8 2.39999Z" fill="#D9D9D9" fill-opacity="0.5"/>
<path d="M8 10C9.10457 10 10 9.10457 10 8C10 6.89543 9.10457 6 8 6C6.89543 6 6 6.89543 6 8C6 9.10457 6.89543 10 8 10Z" fill="#D9D9D9" fill-opacity="0.5"/>
</svg>
