<svg width="48" height="8" viewBox="0 0 48 8" fill="none" xmlns="http://www.w3.org/2000/svg">
<path d="M1.46713 3.464H2.29913C2.70446 3.464 3.02179 3.36 3.25113 3.152C3.48046 2.93867 3.59513 2.66933 3.59513 2.344C3.59513 1.98133 3.47779 1.69333 3.24313 1.48C3.00846 1.26667 2.67513 1.16 2.24313 1.16H1.46713V3.464ZM0.819125 0.608H2.23513C2.85913 0.608 3.34979 0.770666 3.70713 1.096C4.06979 1.416 4.25113 1.832 4.25113 2.344C4.25113 2.824 4.07246 3.224 3.71513 3.544C3.35779 3.85867 2.88579 4.016 2.29913 4.016H1.46713V6H0.819125V0.608ZM5.7705 1.944V2.656C5.98383 2.15467 6.35183 1.904 6.8745 1.904C6.9705 1.904 7.04517 1.90933 7.0985 1.92V2.544C6.9865 2.50667 6.87183 2.488 6.7545 2.488C6.47183 2.488 6.23717 2.61867 6.0505 2.88C5.86383 3.14133 5.7705 3.44267 5.7705 3.784V6H5.1385L5.1465 1.944H5.7705ZM7.78788 6V1.944H8.41988V6H7.78788ZM7.80388 0.968C7.72921 0.888 7.69188 0.789333 7.69188 0.672C7.69188 0.554667 7.72921 0.456 7.80388 0.376C7.88388 0.296 7.98254 0.256 8.09988 0.256C8.21721 0.256 8.31588 0.296 8.39588 0.376C8.47588 0.456 8.51588 0.554667 8.51588 0.672C8.51588 0.789333 8.47588 0.888 8.39588 0.968C8.31588 1.04267 8.21721 1.08 8.09988 1.08C7.98254 1.08 7.88388 1.04267 7.80388 0.968ZM10.6551 6L9.23906 1.944H9.89506L10.4551 3.656L11.0471 5.504C11.0951 5.27467 11.2951 4.65867 11.6471 3.656L12.2231 1.944H12.8791L11.4311 6H10.6551ZM15.8461 4.128H15.1421C14.8008 4.128 14.5448 4.19467 14.3741 4.328C14.2035 4.46133 14.1181 4.62933 14.1181 4.832C14.1181 5.03467 14.1848 5.2 14.3181 5.328C14.4515 5.45067 14.6461 5.512 14.9021 5.512C15.1901 5.512 15.4195 5.432 15.5901 5.272C15.7608 5.10667 15.8461 4.89867 15.8461 4.648V4.128ZM13.7501 2.792V2.16C14.0541 1.97333 14.4541 1.88 14.9501 1.88C15.9688 1.88 16.4781 2.39733 16.4781 3.432V6H15.8541V5.52C15.6461 5.86667 15.2675 6.04 14.7181 6.04C14.3395 6.04 14.0328 5.928 13.7981 5.704C13.5688 5.48 13.4541 5.19733 13.4541 4.856C13.4541 4.46667 13.6008 4.16533 13.8941 3.952C14.1928 3.73333 14.5981 3.624 15.1101 3.624H15.8461V3.416C15.8461 3.096 15.7741 2.856 15.6301 2.696C15.4861 2.53067 15.2435 2.448 14.9021 2.448C14.4701 2.448 14.0861 2.56267 13.7501 2.792ZM18.0156 3.992C18.021 4.42933 18.1543 4.79467 18.4156 5.088C18.677 5.376 19.0476 5.52 19.5276 5.52C19.837 5.52 20.125 5.432 20.3916 5.256V5.856C20.1356 6.01067 19.821 6.088 19.4476 6.088C18.8076 6.088 18.2983 5.88533 17.9196 5.48C17.5463 5.06933 17.3596 4.57067 17.3596 3.984C17.3596 3.408 17.5463 2.912 17.9196 2.496C18.2983 2.08 18.813 1.872 19.4636 1.872C19.8103 1.872 20.1196 1.94667 20.3916 2.096V2.696C20.1463 2.53067 19.8583 2.448 19.5276 2.448C19.069 2.448 18.701 2.59733 18.4236 2.896C18.1516 3.18933 18.0156 3.55467 18.0156 3.992ZM22.4853 5.896L20.8453 1.944H21.5573L22.0853 3.28L22.7973 5.12C22.8399 4.98133 23.0533 4.368 23.4373 3.28L23.9093 1.944H24.5893L23.1253 5.896C22.9173 6.44533 22.6693 6.832 22.3813 7.056C22.0986 7.28 21.7733 7.392 21.4053 7.392C21.2666 7.392 21.1546 7.37867 21.0693 7.352V6.784C21.1493 6.80533 21.2399 6.816 21.3413 6.816C21.8799 6.816 22.2613 6.50933 22.4853 5.896ZM25.1826 4.128V3.576H27.0546V4.128H25.1826ZM31.2118 0.608V1.176H29.7558V6H29.1078V1.176H27.6518V0.608H31.2118ZM34.5352 3.712V3.552C34.5352 3.216 34.4445 2.94933 34.2632 2.752C34.0819 2.54933 33.8312 2.448 33.5112 2.448C33.2072 2.448 32.9485 2.55733 32.7352 2.776C32.5219 2.99467 32.3965 3.30667 32.3592 3.712H34.5352ZM34.9112 5.2V5.792C34.5965 5.95733 34.2125 6.04 33.7592 6.04C33.1459 6.04 32.6499 5.85333 32.2712 5.48C31.8979 5.10133 31.7112 4.60267 31.7112 3.984C31.7112 3.33867 31.8792 2.82933 32.2152 2.456C32.5512 2.08267 32.9832 1.896 33.5112 1.896C34.0179 1.896 34.4205 2.05867 34.7192 2.384C35.0179 2.70933 35.1672 3.17067 35.1672 3.768C35.1672 3.93867 35.1539 4.096 35.1272 4.24H32.3592C32.4072 4.64 32.5592 4.94667 32.8152 5.16C33.0712 5.37333 33.4072 5.48 33.8232 5.48C34.2765 5.48 34.6392 5.38667 34.9112 5.2ZM36.7549 1.944V2.656C36.9682 2.15467 37.3362 1.904 37.8589 1.904C37.9549 1.904 38.0295 1.90933 38.0829 1.92V2.544C37.9709 2.50667 37.8562 2.488 37.7389 2.488C37.4562 2.488 37.2215 2.61867 37.0349 2.88C36.8482 3.14133 36.7549 3.44267 36.7549 3.784V6H36.1229L36.1309 1.944H36.7549ZM39.3643 1.944V2.6C39.5883 2.12533 39.9696 1.888 40.5082 1.888C41.1323 1.888 41.5269 2.152 41.6923 2.68C41.8096 2.424 41.9723 2.22933 42.1803 2.096C42.3936 1.95733 42.6309 1.888 42.8923 1.888C43.3136 1.888 43.6309 2.008 43.8443 2.248C44.0576 2.488 44.1643 2.81067 44.1643 3.216V6H43.5323V3.376C43.5323 2.76267 43.2736 2.456 42.7563 2.456C42.5003 2.456 42.2709 2.57333 42.0683 2.808C41.8656 3.03733 41.7643 3.36267 41.7643 3.784V6H41.1323V3.376C41.1323 2.76267 40.8736 2.456 40.3563 2.456C40.1003 2.456 39.8709 2.57333 39.6683 2.808C39.4656 3.03733 39.3643 3.36267 39.3643 3.784V6H38.7403V1.944H39.3643ZM47.4951 2.08V2.68C47.2498 2.53067 46.9138 2.456 46.4871 2.456C46.2738 2.456 46.1031 2.50667 45.9751 2.608C45.8525 2.704 45.7911 2.82933 45.7911 2.984C45.7911 3.08 45.8098 3.16533 45.8471 3.24C45.8845 3.30933 45.9565 3.37867 46.0631 3.448C46.1751 3.51733 46.2551 3.56533 46.3031 3.592C46.3565 3.61333 46.4685 3.66133 46.6391 3.736C46.9805 3.87467 47.2471 4.032 47.4391 4.208C47.6311 4.384 47.7271 4.62133 47.7271 4.92C47.7271 5.26667 47.6045 5.54133 47.3591 5.744C47.1191 5.94667 46.7885 6.048 46.3671 6.048C45.8765 6.048 45.4791 5.96533 45.1751 5.8V5.184C45.5325 5.39733 45.9165 5.504 46.3271 5.504C46.5725 5.504 46.7591 5.456 46.8871 5.36C47.0151 5.264 47.0791 5.13333 47.0791 4.968C47.0791 4.776 47.0071 4.62667 46.8631 4.52C46.7245 4.41333 46.4898 4.29333 46.1591 4.16C45.8551 4.04267 45.6098 3.896 45.4231 3.72C45.2418 3.544 45.1511 3.30667 45.1511 3.008C45.1511 2.672 45.2765 2.40533 45.5271 2.208C45.7831 2.00533 46.1005 1.904 46.4791 1.904C46.9005 1.904 47.2391 1.96267 47.4951 2.08Z" fill="white"/>
</svg>
