<svg width="28" height="28" viewBox="0 0 28 28" fill="none" xmlns="http://www.w3.org/2000/svg">
<g clip-path="url(#clip0_62_128)">
<path d="M14 27.9999C14.9283 27.9999 15.8185 27.6311 16.4749 26.9748C17.1313 26.3184 17.5 25.4281 17.5 24.4999H10.5C10.5 25.4281 10.8687 26.3184 11.5251 26.9748C12.1815 27.6311 13.0717 27.9999 14 27.9999ZM14 3.35638L12.6053 3.63813C11.0229 3.95987 9.6004 4.81878 8.57885 6.06933C7.5573 7.31987 6.99951 8.88513 7 10.4999C7 11.5989 6.7655 14.3446 6.19675 17.0484C5.91675 18.3906 5.53875 19.7889 5.0365 20.9999H22.9635C22.4613 19.7889 22.085 18.3924 21.8032 17.0484C21.2345 14.3446 21 11.5989 21 10.4999C21.0001 8.88543 20.4421 7.32058 19.4206 6.0704C18.3991 4.82022 16.9768 3.96156 15.3947 3.63988L14 3.35638ZM24.885 20.9999C25.2753 21.7821 25.7267 22.4016 26.25 22.7499H1.75C2.27325 22.4016 2.72475 21.7821 3.115 20.9999C4.69 17.8499 5.25 12.0399 5.25 10.4999C5.25 6.26488 8.26 2.72988 12.2587 1.92313C12.2343 1.6798 12.2612 1.43405 12.3376 1.20174C12.4139 0.969419 12.5382 0.75569 12.7022 0.574335C12.8663 0.392979 13.0666 0.248024 13.2901 0.148816C13.5136 0.0496086 13.7554 -0.00164795 14 -0.00164795C14.2446 -0.00164795 14.4864 0.0496086 14.7099 0.148816C14.9334 0.248024 15.1337 0.392979 15.2978 0.574335C15.4618 0.75569 15.5861 0.969419 15.6624 1.20174C15.7388 1.43405 15.7657 1.6798 15.7413 1.92313C17.7195 2.32485 19.4981 3.39823 20.7755 4.96136C22.0528 6.5245 22.7504 8.48121 22.75 10.4999C22.75 12.0399 23.31 17.8499 24.885 20.9999Z" fill="white"/>
</g>
<defs>
<clipPath id="clip0_62_128">
<rect width="28" height="28" fill="white"/>
</clipPath>
</defs>
</svg>
