<svg width="27" height="27" viewBox="0 0 27 27" fill="none" xmlns="http://www.w3.org/2000/svg">
<path d="M0.0572902 0.698741C0.147984 0.437245 0.33746 0.222953 0.584054 0.102986C0.830648 -0.0169808 1.11417 -0.0327995 1.37227 0.0590083L1.78767 0.206746C2.63498 0.50919 3.35575 0.765641 3.92245 1.04718C4.52768 1.34962 5.04899 1.72036 5.43963 2.30016C5.82753 2.87439 5.98708 3.50576 6.06136 4.19845C6.09346 4.50787 6.11317 4.85073 6.12051 5.22704H20.7545C23.0722 5.22704 25.1575 5.22704 25.7682 6.03124C26.3789 6.83543 26.1396 8.048 25.6637 10.4717L24.9759 13.8516C24.5426 15.9812 24.3253 17.0475 23.566 17.6733C22.8081 18.3004 21.7338 18.3004 19.5867 18.3004H12.2938C8.45749 18.3004 6.54004 18.3004 5.34747 17.0266C4.15491 15.7527 4.06826 14.4007 4.06826 10.3003V6.67376C4.06826 5.64238 4.06826 4.95247 4.01186 4.42285C3.95684 3.91692 3.86056 3.66325 3.73676 3.47928C3.61572 3.29948 3.43277 3.13084 3.01462 2.92456C2.57171 2.70435 1.96786 2.48693 1.04903 2.15939L0.690021 2.03256C0.562078 1.98707 0.44424 1.91646 0.343249 1.82478C0.242257 1.7331 0.160093 1.62215 0.101455 1.49827C0.0428169 1.37439 0.00885576 1.24001 0.00151357 1.10282C-0.00582862 0.965631 0.0122169 0.82832 0.0572902 0.698741ZM7.50701 21.9521C8.05422 21.9521 8.57902 22.1723 8.96596 22.5644C9.35289 22.9565 9.57027 23.4882 9.57027 24.0427C9.57027 24.5972 9.35289 25.1289 8.96596 25.521C8.57902 25.9131 8.05422 26.1333 7.50701 26.1333C6.95981 26.1333 6.43501 25.9131 6.04807 25.521C5.66114 25.1289 5.44376 24.5972 5.44376 24.0427C5.44376 23.4882 5.66114 22.9565 6.04807 22.5644C6.43501 22.1723 6.95981 21.9521 7.50701 21.9521ZM19.8865 21.9521C20.4338 21.9521 20.9585 22.1723 21.3455 22.5644C21.7324 22.9565 21.9498 23.4882 21.9498 24.0427C21.9498 24.5972 21.7324 25.1289 21.3455 25.521C20.9585 25.9131 20.4338 26.1333 19.8865 26.1333C19.3393 26.1333 18.8145 25.9131 18.4276 25.521C18.0407 25.1289 17.8233 24.5972 17.8233 24.0427C17.8233 23.4882 18.0407 22.9565 18.4276 22.5644C18.8145 22.1723 19.3393 21.9521 19.8865 21.9521Z" fill="white"/>
</svg>
