<svg width="28" height="28" viewBox="0 0 28 28" fill="none" xmlns="http://www.w3.org/2000/svg">
<path fill-rule="evenodd" clip-rule="evenodd" d="M1.36512 0.0610388C1.10866 -0.0337838 0.826874 -0.0176184 0.581753 0.105979C0.336633 0.229577 0.148255 0.450482 0.0580598 0.720098C-0.0321351 0.989714 -0.0167584 1.28596 0.100807 1.54365C0.218373 1.80135 0.428497 1.99939 0.684955 2.09422L1.04279 2.22488C1.95377 2.56231 2.55335 2.78486 2.9945 3.01317C3.40833 3.22711 3.59134 3.40085 3.71153 3.58464C3.83445 3.77417 3.93006 4.0355 3.98469 4.55672C4.03932 5.10234 4.04069 5.81309 4.04069 6.87563V10.784C4.04069 12.8703 4.05981 14.3737 4.24692 15.5224C4.44632 16.7486 4.84513 17.6273 5.59222 18.4544C6.40349 19.3547 7.43056 19.7467 8.65567 19.9276C9.82751 20.1028 11.3162 20.1028 13.1532 20.1028H20.5366C21.55 20.1028 22.4023 20.1028 23.0906 20.0137C23.8241 19.9204 24.4906 19.7137 25.0738 19.2154C25.6556 18.7157 25.982 18.071 26.2169 17.3359C26.4395 16.6438 26.6116 15.7665 26.8165 14.7226L27.5103 11.1775L27.5131 11.1703L27.5267 11.0956C27.7521 9.91104 27.9405 8.91455 27.9883 8.11334C28.0375 7.27193 27.946 6.442 27.4243 5.72981C27.1033 5.29044 26.6526 5.04204 26.2415 4.89127C25.7974 4.73754 25.3384 4.6364 24.873 4.58974C23.9347 4.48062 22.7943 4.48062 21.6771 4.48062H6.03337L6.01971 4.32554C5.94596 3.61192 5.78752 2.96148 5.40101 2.3699C5.01312 1.77258 4.49686 1.39064 3.89591 1.07906C3.33321 0.78902 2.61754 0.524821 1.77485 0.21324L1.36512 0.0610388ZM6.09073 6.6344H21.6334C22.8025 6.6344 23.8323 6.63584 24.6449 6.73061C25.0492 6.77943 25.351 6.84548 25.5627 6.92301C25.6487 6.95005 25.7299 6.99177 25.8031 7.0465C25.8878 7.16424 25.9779 7.37674 25.9424 7.98124C25.9055 8.61876 25.7471 9.46879 25.504 10.7467V10.7496L24.8211 14.2244C24.6026 15.3486 24.4523 16.0953 24.2761 16.6481C24.1082 17.1736 23.9497 17.399 23.779 17.5455C23.6083 17.692 23.3652 17.8097 22.8434 17.8758C22.2917 17.9475 21.5664 17.949 20.4752 17.949H13.2324C11.2971 17.949 9.95453 17.9461 8.94385 17.7953C7.96595 17.6503 7.45105 17.3861 7.07819 16.9726C6.64114 16.4873 6.40486 16.0134 6.26555 15.1591C6.11531 14.2258 6.08936 12.922 6.08936 10.784L6.09073 6.6344ZM8.53685 28C7.72183 28 6.9402 27.6596 6.3639 27.0538C5.7876 26.4479 5.46383 25.6261 5.46383 24.7693C5.46383 23.9125 5.7876 23.0907 6.3639 22.4849C6.9402 21.879 7.72183 21.5386 8.53685 21.5386C9.35186 21.5386 10.1335 21.879 10.7098 22.4849C11.2861 23.0907 11.6099 23.9125 11.6099 24.7693C11.6099 25.6261 11.2861 26.4479 10.7098 27.0538C10.1335 27.6596 9.35186 28 8.53685 28ZM7.51251 24.7693C7.51251 25.0549 7.62043 25.3288 7.81253 25.5308C8.00463 25.7328 8.26518 25.8462 8.53685 25.8462C8.80852 25.8462 9.06906 25.7328 9.26116 25.5308C9.45326 25.3288 9.56119 25.0549 9.56119 24.7693C9.56119 24.4837 9.45326 24.2098 9.26116 24.0078C9.06906 23.8059 8.80852 23.6924 8.53685 23.6924C8.26518 23.6924 8.00463 23.8059 7.81253 24.0078C7.62043 24.2098 7.51251 24.4837 7.51251 24.7693ZM20.8289 28C20.0139 28 19.2323 27.6596 18.656 27.0538C18.0797 26.4479 17.7559 25.6261 17.7559 24.7693C17.7559 23.9125 18.0797 23.0907 18.656 22.4849C19.2323 21.879 20.0139 21.5386 20.8289 21.5386C21.6439 21.5386 22.4256 21.879 23.0019 22.4849C23.5782 23.0907 23.9019 23.9125 23.9019 24.7693C23.9019 25.6261 23.5782 26.4479 23.0019 27.0538C22.4256 27.6596 21.6439 28 20.8289 28ZM19.8046 24.7693C19.8046 25.0549 19.9125 25.3288 20.1046 25.5308C20.2967 25.7328 20.5572 25.8462 20.8289 25.8462C21.1006 25.8462 21.3611 25.7328 21.5532 25.5308C21.7453 25.3288 21.8532 25.0549 21.8532 24.7693C21.8532 24.4837 21.7453 24.2098 21.5532 24.0078C21.3611 23.8059 21.1006 23.6924 20.8289 23.6924C20.5572 23.6924 20.2967 23.8059 20.1046 24.0078C19.9125 24.2098 19.8046 24.4837 19.8046 24.7693Z" fill="white"/>
</svg>
