<svg width="28" height="28" viewBox="0 0 28 28" fill="none" xmlns="http://www.w3.org/2000/svg">
<path fill-rule="evenodd" clip-rule="evenodd" d="M2.59536 2.67526C2.38164 2.59624 2.14683 2.60971 1.94256 2.71271C1.73829 2.8157 1.58131 2.99979 1.50615 3.22447C1.43098 3.44915 1.4438 3.69602 1.54177 3.91077C1.63974 4.12551 1.81484 4.29055 2.02856 4.36957L2.32676 4.47846C3.0859 4.75964 3.58555 4.94511 3.95318 5.13536C4.29804 5.31365 4.45055 5.45843 4.55071 5.61159C4.65314 5.76953 4.73281 5.9873 4.77834 6.42165C4.82386 6.87634 4.825 7.46863 4.825 8.35408V11.6111C4.825 13.3497 4.84094 14.6025 4.99686 15.5597C5.16303 16.5816 5.49537 17.3138 6.11794 18.0031C6.79401 18.7533 7.6499 19.08 8.67082 19.2307C9.64736 19.3767 10.8879 19.3767 12.4188 19.3767H18.5716C19.4161 19.3767 20.1263 19.3767 20.7 19.3025C21.3112 19.2247 21.8666 19.0524 22.3526 18.6372C22.8374 18.2208 23.1094 17.6836 23.3052 17.0709C23.4907 16.4942 23.6341 15.7631 23.8048 14.8932L24.383 11.9389L24.3853 11.933L24.3967 11.8707C24.5845 10.8836 24.7415 10.0532 24.7814 9.38551C24.8224 8.68433 24.7461 7.99272 24.3113 7.39923C24.0439 7.03309 23.6683 6.82609 23.3257 6.70045C22.9556 6.57234 22.5731 6.48806 22.1853 6.44917C21.4033 6.35824 20.453 6.35824 19.522 6.35824H6.48557L6.47419 6.22901C6.41273 5.63432 6.2807 5.09229 5.9586 4.59931C5.63537 4.10154 5.20515 3.78326 4.70436 3.52361C4.23544 3.28191 3.63905 3.06174 2.93681 2.80209L2.59536 2.67526ZM6.53337 8.15306H19.4856C20.4598 8.15306 21.318 8.15426 21.9952 8.23323C22.3321 8.27391 22.5836 8.32895 22.76 8.39357C22.8317 8.4161 22.8994 8.45086 22.9603 8.49647C23.0309 8.59459 23.106 8.77168 23.0764 9.27542C23.0457 9.80669 22.9137 10.515 22.7111 11.58V11.5824L22.142 14.478C21.9599 15.4149 21.8347 16.0371 21.6879 16.4978C21.5479 16.9357 21.4159 17.1236 21.2736 17.2456C21.1313 17.3677 20.9287 17.4658 20.494 17.5208C20.0341 17.5807 19.4298 17.5819 18.5204 17.5819H12.4848C10.872 17.5819 9.75321 17.5795 8.91097 17.4538C8.09606 17.333 7.66697 17.1128 7.35626 16.7682C6.99205 16.3638 6.79515 15.9689 6.67905 15.257C6.55386 14.4792 6.53223 13.3928 6.53223 11.6111L6.53337 8.15306ZM8.5718 25.9577C7.89262 25.9577 7.24126 25.6741 6.76101 25.1692C6.28076 24.6643 6.01096 23.9795 6.01096 23.2655C6.01096 22.5515 6.28076 21.8667 6.76101 21.3618C7.24126 20.8569 7.89262 20.5732 8.5718 20.5732C9.25098 20.5732 9.90234 20.8569 10.3826 21.3618C10.8628 21.8667 11.1326 22.5515 11.1326 23.2655C11.1326 23.9795 10.8628 24.6643 10.3826 25.1692C9.90234 25.6741 9.25098 25.9577 8.5718 25.9577ZM7.71819 23.2655C7.71819 23.5035 7.80812 23.7318 7.96821 23.9001C8.12829 24.0683 8.34541 24.1629 8.5718 24.1629C8.7982 24.1629 9.01532 24.0683 9.1754 23.9001C9.33548 23.7318 9.42542 23.5035 9.42542 23.2655C9.42542 23.0275 9.33548 22.7992 9.1754 22.6309C9.01532 22.4626 8.7982 22.3681 8.5718 22.3681C8.34541 22.3681 8.12829 22.4626 7.96821 22.6309C7.80812 22.7992 7.71819 23.0275 7.71819 23.2655ZM18.8152 25.9577C18.136 25.9577 17.4846 25.6741 17.0044 25.1692C16.5241 24.6643 16.2543 23.9795 16.2543 23.2655C16.2543 22.5515 16.5241 21.8667 17.0044 21.3618C17.4846 20.8569 18.136 20.5732 18.8152 20.5732C19.4944 20.5732 20.1457 20.8569 20.626 21.3618C21.1062 21.8667 21.376 22.5515 21.376 23.2655C21.376 23.9795 21.1062 24.6643 20.626 25.1692C20.1457 25.6741 19.4944 25.9577 18.8152 25.9577ZM17.9616 23.2655C17.9616 23.5035 18.0515 23.7318 18.2116 23.9001C18.3717 24.0683 18.5888 24.1629 18.8152 24.1629C19.0416 24.1629 19.2587 24.0683 19.4188 23.9001C19.5789 23.7318 19.6688 23.5035 19.6688 23.2655C19.6688 23.0275 19.5789 22.7992 19.4188 22.6309C19.2587 22.4626 19.0416 22.3681 18.8152 22.3681C18.5888 22.3681 18.3717 22.4626 18.2116 22.6309C18.0515 22.7992 17.9616 23.0275 17.9616 23.2655Z" fill="white"/>
</svg>
