<svg width="35" height="35" viewBox="0 0 35 35" fill="none" xmlns="http://www.w3.org/2000/svg">
<path fill-rule="evenodd" clip-rule="evenodd" d="M24.0625 3.28125C23.3691 3.28102 22.684 3.43295 22.0557 3.72632C21.4274 4.01969 20.8711 4.44736 20.4261 4.97915C19.9811 5.51095 19.6582 6.13391 19.4802 6.80411C19.3021 7.4743 19.2734 8.17539 19.3958 8.85792L12.4979 13.6879L12.3987 13.7652C11.6989 13.2182 10.8595 12.8788 9.97614 12.7858C9.09278 12.6927 8.20105 12.8498 7.40264 13.2391C6.60424 13.6284 5.93129 14.2342 5.46055 14.9874C4.9898 15.7407 4.74019 16.611 4.74019 17.4993C4.74019 18.3875 4.9898 19.2579 5.46055 20.0111C5.93129 20.7644 6.60424 21.3702 7.40264 21.7595C8.20105 22.1487 9.09278 22.3058 9.97614 22.2128C10.8595 22.1198 11.6989 21.7804 12.3987 21.2333L12.4979 21.3121L19.3958 26.1421C19.3472 26.4143 19.3229 26.6933 19.3229 26.9792C19.3231 28.1028 19.7225 29.1898 20.4498 30.0463C21.1771 30.9027 22.185 31.473 23.2937 31.6552C24.4025 31.8375 25.5399 31.6199 26.5031 31.0413C27.4663 30.4627 28.1926 29.5607 28.5525 28.4963C28.9123 27.4318 28.8823 26.2742 28.4677 25.2298C28.0532 24.1855 27.2811 23.3223 26.2892 22.7945C25.2974 22.2666 24.1502 22.1082 23.0524 22.3477C21.9546 22.5872 20.9776 23.2089 20.2956 24.1019L13.7637 19.5271C14.0554 18.9117 14.2187 18.2248 14.2187 17.4985C14.2187 16.7723 14.0554 16.084 13.7637 15.47L20.2971 10.8967C20.7863 11.5376 21.4309 12.043 22.17 12.3653C22.9091 12.6876 23.7181 12.816 24.5206 12.7384C25.3232 12.6608 26.0926 12.3798 26.7563 11.9218C27.4199 11.4639 27.9557 10.8443 28.3131 10.1215C28.6704 9.39879 28.8375 8.59682 28.7985 7.79149C28.7595 6.98617 28.5157 6.2041 28.0901 5.51928C27.6646 4.83446 27.0714 4.26951 26.3666 3.87789C25.6618 3.48627 24.8688 3.28091 24.0625 3.28125ZM21.5104 8.02083C21.5104 7.34398 21.7793 6.69485 22.2579 6.21624C22.7365 5.73763 23.3856 5.46875 24.0625 5.46875C24.7394 5.46875 25.3885 5.73763 25.8671 6.21624C26.3457 6.69485 26.6146 7.34398 26.6146 8.02083C26.6146 8.69769 26.3457 9.34682 25.8671 9.82543C25.3885 10.304 24.7394 10.5729 24.0625 10.5729C23.3856 10.5729 22.7365 10.304 22.2579 9.82543C21.7793 9.34682 21.5104 8.69769 21.5104 8.02083ZM9.47917 14.9479C8.80231 14.9479 8.15318 15.2168 7.67457 15.6954C7.19596 16.174 6.92708 16.8231 6.92708 17.5C6.92708 18.1769 7.19596 18.826 7.67457 19.3046C8.15318 19.7832 8.80231 20.0521 9.47917 20.0521C10.156 20.0521 10.8052 19.7832 11.2838 19.3046C11.7624 18.826 12.0312 18.1769 12.0312 17.5C12.0312 16.8231 11.7624 16.174 11.2838 15.6954C10.8052 15.2168 10.156 14.9479 9.47917 14.9479ZM24.0625 24.4271C23.3856 24.4271 22.7365 24.696 22.2579 25.1746C21.7793 25.6532 21.5104 26.3023 21.5104 26.9792C21.5104 27.656 21.7793 28.3052 22.2579 28.7838C22.7365 29.2624 23.3856 29.5312 24.0625 29.5312C24.7394 29.5312 25.3885 29.2624 25.8671 28.7838C26.3457 28.3052 26.6146 27.656 26.6146 26.9792C26.6146 26.3023 26.3457 25.6532 25.8671 25.1746C25.3885 24.696 24.7394 24.4271 24.0625 24.4271Z" fill="white"/>
</svg>
