<svg width="28" height="28" viewBox="0 0 28 28" fill="none" xmlns="http://www.w3.org/2000/svg">
<path d="M13.9998 4.80908L12.7451 3.51934C9.79982 0.491835 4.39932 1.53659 2.44982 5.34283C1.53457 7.13309 1.32807 9.71784 2.99932 13.0166C4.60932 16.1928 7.95882 19.9973 13.9998 24.1413C20.0408 19.9973 23.3886 16.1928 25.0003 13.0166C26.6716 9.71609 26.4668 7.13309 25.5498 5.34283C23.6003 1.53659 18.1998 0.490085 15.2546 3.51759L13.9998 4.80908ZM13.9998 26.2501C-12.8329 8.51908 5.73807 -5.31992 13.6918 2.00033C13.7968 2.09717 13.8995 2.19692 13.9998 2.29958C14.0984 2.19627 14.2011 2.09702 14.3078 2.00208C22.2598 -5.32341 40.8326 8.51733 13.9998 26.2501Z" fill="white"/>
</svg>
