<svg width="22" height="22" viewBox="0 0 22 22" fill="none" xmlns="http://www.w3.org/2000/svg">
<path d="M19.5176 11.033L19.5036 3.51815L16.1547 3.52438L15.9856 3.50579C12.8753 2.82277 10.8142 2.32995 9.78691 2.02421C8.4223 1.6183 7.91371 1.51949 6.98852 1.46241C6.29656 1.41855 5.51122 1.67306 5.15377 2.02023C4.95629 2.21169 4.80892 2.60467 4.75147 3.21378C4.73969 3.34154 4.69191 3.46393 4.61314 3.5681C4.53438 3.67227 4.42754 3.75437 4.30385 3.80576C4.02886 3.91967 3.80042 4.1049 3.60971 4.37406C3.43333 4.62009 3.31924 5.0781 3.29947 5.74069C3.29621 5.86254 3.26017 5.98158 3.19478 6.08647C3.12939 6.19136 3.03683 6.2786 2.92591 6.33988C2.28332 6.69493 1.96576 7.09452 1.90032 7.56294C1.82833 8.08073 2.00626 8.66315 2.47058 9.32589C2.57952 9.48132 2.62035 9.671 2.58436 9.8546C2.54838 10.0382 2.43842 10.2012 2.27789 10.3091C1.83524 10.606 1.59286 11.018 1.53315 11.6019C1.43762 12.5324 2.06336 13.219 3.4772 13.3539C4.73642 13.4704 6.00748 13.3673 7.2278 13.0498C7.36624 13.0152 7.51221 13.0188 7.64853 13.0603C7.78486 13.1018 7.90587 13.1794 7.99732 13.284C8.08877 13.3886 8.14686 13.5159 8.16477 13.6508C8.18267 13.7858 8.15963 13.9228 8.09837 14.0457C7.54782 15.1576 7.24227 16.0748 7.17175 16.7848C7.07955 17.7268 7.3096 18.4089 7.84558 18.9707C8.25199 19.3962 8.90122 19.6386 9.14427 19.5878C9.46467 19.5221 9.67323 19.3453 9.94397 18.7274C10.1035 18.3617 10.1803 18.0507 10.3116 17.3249C10.4374 16.6359 10.5065 16.325 10.6505 15.9173C11.0848 14.6817 12.1534 13.3997 13.5896 12.514C14.5971 11.8954 15.6881 11.4095 16.833 11.0695C16.9047 11.0487 16.9791 11.038 17.054 11.0376L19.5176 11.033ZM19.5473 2.08691C19.9043 2.0768 20.225 2.1518 20.4939 2.3298C20.8369 2.55702 20.999 2.91582 21.003 3.32951L21.014 11.0187C21.0524 11.4281 20.926 11.8042 20.6259 12.0841C20.3445 12.3471 19.9767 12.4717 19.5876 12.464L17.1727 12.4685C16.1964 12.766 15.2658 13.185 14.4053 13.7148C13.2484 14.4288 12.397 15.451 12.0727 16.3714C11.9617 16.6887 11.9025 16.9513 11.7909 17.5689C11.6399 18.3977 11.5456 18.7832 11.3276 19.2792C10.8764 20.3111 10.2827 20.8163 9.46297 20.9868C8.65646 21.1542 7.48078 20.7144 6.73661 19.9345C5.91161 19.0709 5.54598 17.989 5.67833 16.651C5.73547 16.0769 5.90153 15.4312 6.1765 14.7139C5.23313 14.8464 4.2762 14.8679 3.32733 14.778C1.10873 14.5669 -0.139415 13.1969 0.038617 11.4619C0.116803 10.7142 0.400773 10.0784 0.885041 9.57874C0.475823 8.83295 0.311982 8.0951 0.412324 7.37461C0.527936 6.54489 1.01295 5.85309 1.82098 5.31504C1.88263 4.58727 2.05728 4.00629 2.36815 3.57101C2.61383 3.21995 2.93355 2.92116 3.30707 2.69356C3.4251 1.97514 3.67494 1.41292 4.08425 1.01736C4.76274 0.358798 5.97666 -0.0351102 7.08644 0.0342264C8.13985 0.0994679 8.76343 0.220109 10.2342 0.658376C11.204 0.947423 13.212 1.42669 16.2383 2.09307L19.5473 2.08691ZM17.6846 11.363C17.6851 11.4569 17.666 11.55 17.6285 11.6369C17.5911 11.7239 17.5359 11.8029 17.4662 11.8696C17.3965 11.9363 17.3136 11.9892 17.2224 12.0254C17.1311 12.0616 17.0333 12.0803 16.9344 12.0805C16.8357 12.0804 16.738 12.0618 16.6468 12.0258C16.5557 11.9899 16.4729 11.9372 16.4032 11.8708C16.3335 11.8045 16.2782 11.7257 16.2406 11.639C16.2029 11.5524 16.1836 11.4595 16.1837 11.3657L16.1687 3.30385C16.1684 3.21009 16.1875 3.11718 16.225 3.03043C16.2625 2.94368 16.3175 2.86479 16.3871 2.79826C16.4567 2.73173 16.5393 2.67887 16.6304 2.64269C16.7215 2.60651 16.8191 2.58773 16.9178 2.58741C17.0165 2.58736 17.1143 2.60578 17.2054 2.64162C17.2966 2.67746 17.3795 2.73002 17.4493 2.79628C17.5191 2.86255 17.5745 2.94124 17.6123 3.02785C17.6501 3.11446 17.6696 3.2073 17.6696 3.30106L17.6846 11.363Z" fill="#D9D9D9"/>
</svg>
