<svg width="23" height="23" viewBox="0 0 23 23" fill="none" xmlns="http://www.w3.org/2000/svg">
<path d="M20.0544 9.57375C13.7198 8.70358 8.25731 13.4071 8.62435 19.6458M6.22852 7.66667C6.22852 8.175 6.43045 8.66251 6.78989 9.02195C7.14934 9.3814 7.63685 9.58333 8.14518 9.58333C8.65351 9.58333 9.14103 9.3814 9.50047 9.02195C9.85991 8.66251 10.0618 8.175 10.0618 7.66667C10.0618 7.15834 9.85991 6.67082 9.50047 6.31138C9.14103 5.95193 8.65351 5.75 8.14518 5.75C7.63685 5.75 7.14934 5.95193 6.78989 6.31138C6.43045 6.67082 6.22852 7.15834 6.22852 7.66667Z" stroke="#D9D9D9" stroke-opacity="0.5" stroke-width="1.5" stroke-linecap="round" stroke-linejoin="round"/>
<path d="M2.875 12.5216C5.53917 12.1526 7.93021 13.4397 9.223 15.4924" stroke="#D9D9D9" stroke-opacity="0.5" stroke-width="1.5" stroke-linecap="round" stroke-linejoin="round"/>
<path d="M2.875 9.00833C2.875 6.86167 2.875 5.78833 3.29283 4.968C3.66034 4.24674 4.24674 3.66034 4.968 3.29283C5.78833 2.875 6.86167 2.875 9.00833 2.875H13.9917C16.1383 2.875 17.2117 2.875 18.032 3.29283C18.7533 3.66034 19.3397 4.24674 19.7072 4.968C20.125 5.78833 20.125 6.86167 20.125 9.00833V13.9917C20.125 16.1383 20.125 17.2117 19.7072 18.032C19.3397 18.7533 18.7533 19.3397 18.032 19.7072C17.2117 20.125 16.1383 20.125 13.9917 20.125H9.00833C6.86167 20.125 5.78833 20.125 4.968 19.7072C4.24674 19.3397 3.66034 18.7533 3.29283 18.032C2.875 17.2117 2.875 16.1383 2.875 13.9917V9.00833Z" stroke="#D9D9D9" stroke-opacity="0.5" stroke-width="1.5" stroke-linecap="round" stroke-linejoin="round"/>
</svg>
