<svg width="22" height="22" viewBox="0 0 22 22" fill="none" xmlns="http://www.w3.org/2000/svg">
<path d="M9.16667 11C9.16667 11.4862 9.35983 11.9526 9.70364 12.2964C10.0475 12.6402 10.5138 12.8333 11 12.8333C11.4862 12.8333 11.9526 12.6402 12.2964 12.2964C12.6402 11.9526 12.8333 11.4862 12.8333 11C12.8333 10.5138 12.6402 10.0475 12.2964 9.70364C11.9526 9.35983 11.4862 9.16667 11 9.16667C10.5138 9.16667 10.0475 9.35983 9.70364 9.70364C9.35983 10.0475 9.16667 10.5138 9.16667 11ZM9.16667 5.50001C9.16667 5.98624 9.35983 6.45255 9.70364 6.79637C10.0475 7.14018 10.5138 7.33334 11 7.33334C11.4862 7.33334 11.9526 7.14018 12.2964 6.79637C12.6402 6.45255 12.8333 5.98624 12.8333 5.50001C12.8333 5.01377 12.6402 4.54746 12.2964 4.20364C11.9526 3.85983 11.4862 3.66667 11 3.66667C10.5138 3.66667 10.0475 3.85983 9.70364 4.20364C9.35983 4.54746 9.16667 5.01377 9.16667 5.50001ZM9.16667 16.5C9.16667 16.9862 9.35983 17.4526 9.70364 17.7964C10.0475 18.1402 10.5138 18.3333 11 18.3333C11.4862 18.3333 11.9526 18.1402 12.2964 17.7964C12.6402 17.4526 12.8333 16.9862 12.8333 16.5C12.8333 16.0138 12.6402 15.5475 12.2964 15.2036C11.9526 14.8598 11.4862 14.6667 11 14.6667C10.5138 14.6667 10.0475 14.8598 9.70364 15.2036C9.35983 15.5475 9.16667 16.0138 9.16667 16.5Z" fill="white" fill-opacity="0.9"/>
</svg>
