<svg width="22" height="22" viewBox="0 0 22 22" fill="none" xmlns="http://www.w3.org/2000/svg">
<path d="M17.4168 8.25004C16.8495 8.25164 16.2965 8.42868 15.8337 8.7569C15.3709 9.08513 15.021 9.54846 14.8318 10.0834H2.75016C2.50705 10.0834 2.27389 10.18 2.10198 10.3519C1.93007 10.5238 1.8335 10.7569 1.8335 11C1.8335 11.2432 1.93007 11.4763 2.10198 11.6482C2.27389 11.8201 2.50705 11.9167 2.75016 11.9167H14.8318C15 12.3923 15.2958 12.8126 15.6868 13.1314C16.0777 13.4502 16.5489 13.6553 17.0487 13.7242C17.5484 13.7932 18.0575 13.7233 18.5202 13.5223C18.9829 13.3213 19.3815 12.9969 19.6721 12.5846C19.9628 12.1723 20.1345 11.6879 20.1684 11.1846C20.2022 10.6812 20.0969 10.1782 19.8641 9.73071C19.6312 9.28318 19.2797 8.90832 18.8481 8.64717C18.4165 8.38601 17.9213 8.24863 17.4168 8.25004ZM17.4168 11.9167C17.2355 11.9167 17.0583 11.8629 16.9076 11.7622C16.7568 11.6615 16.6393 11.5183 16.5699 11.3508C16.5006 11.1833 16.4824 10.999 16.5178 10.8212C16.5531 10.6434 16.6404 10.4801 16.7686 10.3519C16.8968 10.2237 17.0602 10.1364 17.238 10.101C17.4158 10.0656 17.6001 10.0838 17.7676 10.1532C17.9351 10.2225 18.0783 10.34 18.179 10.4908C18.2797 10.6415 18.3335 10.8187 18.3335 11C18.3335 11.2432 18.2369 11.4763 18.065 11.6482C17.8931 11.8201 17.6599 11.9167 17.4168 11.9167ZM2.75016 6.41671H3.83183C4.02452 6.9476 4.37599 7.40629 4.83848 7.73044C5.30097 8.05459 5.85205 8.22848 6.41683 8.22848C6.98161 8.22848 7.53269 8.05459 7.99518 7.73044C8.45767 7.40629 8.80914 6.9476 9.00183 6.41671H19.2502C19.4933 6.41671 19.7264 6.32013 19.8983 6.14822C20.0703 5.97632 20.1668 5.74316 20.1668 5.50004C20.1668 5.25693 20.0703 5.02377 19.8983 4.85186C19.7264 4.67995 19.4933 4.58338 19.2502 4.58338H9.00183C8.80914 4.05249 8.45767 3.5938 7.99518 3.26965C7.53269 2.9455 6.98161 2.77161 6.41683 2.77161C5.85205 2.77161 5.30097 2.9455 4.83848 3.26965C4.37599 3.5938 4.02452 4.05249 3.83183 4.58338H2.75016C2.50705 4.58338 2.27389 4.67995 2.10198 4.85186C1.93007 5.02377 1.8335 5.25693 1.8335 5.50004C1.8335 5.74316 1.93007 5.97632 2.10198 6.14822C2.27389 6.32013 2.50705 6.41671 2.75016 6.41671ZM6.41683 4.58338C6.59813 4.58338 6.77536 4.63714 6.9261 4.73786C7.07685 4.83859 7.19434 4.98175 7.26372 5.14925C7.3331 5.31675 7.35125 5.50106 7.31588 5.67888C7.28051 5.85669 7.19321 6.02003 7.06501 6.14822C6.93681 6.27642 6.77348 6.36373 6.59566 6.3991C6.41785 6.43447 6.23354 6.41631 6.06604 6.34693C5.89854 6.27755 5.75537 6.16006 5.65465 6.00932C5.55392 5.85857 5.50016 5.68134 5.50016 5.50004C5.50016 5.25693 5.59674 5.02377 5.76865 4.85186C5.94056 4.67995 6.17371 4.58338 6.41683 4.58338ZM19.2502 15.5834H12.6685C12.4758 15.0525 12.1243 14.5938 11.6618 14.2696C11.1994 13.9455 10.6483 13.7716 10.0835 13.7716C9.51872 13.7716 8.96764 13.9455 8.50515 14.2696C8.04266 14.5938 7.69118 15.0525 7.4985 15.5834H2.75016C2.50705 15.5834 2.27389 15.68 2.10198 15.8519C1.93007 16.0238 1.8335 16.2569 1.8335 16.5C1.8335 16.7432 1.93007 16.9763 2.10198 17.1482C2.27389 17.3201 2.50705 17.4167 2.75016 17.4167H7.4985C7.69118 17.9476 8.04266 18.4063 8.50515 18.7304C8.96764 19.0546 9.51872 19.2285 10.0835 19.2285C10.6483 19.2285 11.1994 19.0546 11.6618 18.7304C12.1243 18.4063 12.4758 17.9476 12.6685 17.4167H19.2502C19.4933 17.4167 19.7264 17.3201 19.8983 17.1482C20.0703 16.9763 20.1668 16.7432 20.1668 16.5C20.1668 16.2569 20.0703 16.0238 19.8983 15.8519C19.7264 15.68 19.4933 15.5834 19.2502 15.5834ZM10.0835 17.4167C9.9022 17.4167 9.72497 17.363 9.57422 17.2622C9.42348 17.1615 9.30599 17.0183 9.23661 16.8508C9.16723 16.6833 9.14907 16.499 9.18444 16.3212C9.21981 16.1434 9.30712 15.9801 9.43532 15.8519C9.56351 15.7237 9.72685 15.6364 9.90466 15.601C10.0825 15.5656 10.2668 15.5838 10.4343 15.6532C10.6018 15.7225 10.745 15.84 10.8457 15.9908C10.9464 16.1415 11.0002 16.3187 11.0002 16.5C11.0002 16.7432 10.9036 16.9763 10.7317 17.1482C10.5598 17.3201 10.3266 17.4167 10.0835 17.4167Z" fill="#D9D9D9"/>
</svg>
