<svg width="20" height="20" viewBox="0 0 20 20" fill="none" xmlns="http://www.w3.org/2000/svg">
<path d="M3 17H17V19H3V17ZM5.6 14.3C6.144 14.8265 6.79083 15.235 7.5 15.5C8.29292 15.8276 9.14209 15.9974 10 16C10.8579 15.9974 11.7071 15.8276 12.5 15.5C13.1863 15.2172 13.8068 14.796 14.323 14.2626C14.8392 13.7292 15.2398 13.0952 15.5 12.4C15.8107 11.6369 15.9801 10.8237 16 10V2H13.8V10C13.7993 10.5798 13.6978 11.155 13.5 11.7C13.3564 12.176 13.1183 12.6181 12.8 13C12.4639 13.3519 12.0541 13.6251 11.6 13.8C11.0929 14.0086 10.5483 14.1107 10 14.1C9.45174 14.1107 8.90713 14.0086 8.4 13.8C7.93622 13.5961 7.52561 13.2881 7.2 12.9C6.87936 12.5197 6.64101 12.077 6.5 11.6C6.31662 11.0857 6.21538 10.5458 6.2 10V2H4V10C3.98796 10.8175 4.12346 11.6306 4.4 12.4C4.66497 13.1092 5.0735 13.756 5.6 14.3Z" fill="#D9D9D9" fill-opacity="0.5"/>
</svg>
