<svg width="20" height="20" viewBox="0 0 20 20" fill="none" xmlns="http://www.w3.org/2000/svg">
<path d="M5.24 8.51232C4.98 7.96869 4.85 7.34577 4.85 6.62092C4.85 5.93005 4.98 5.30713 5.25 4.72951C5.51 4.16322 5.88 3.67622 6.36 3.26849C6.87648 2.85008 7.45106 2.53236 8.06 2.32845C8.72 2.11326 9.45 2 10.24 2C11.05 2 11.78 2.12458 12.45 2.38508C13.11 2.63424 13.68 2.99667 14.14 3.4497C14.61 3.90273 14.97 4.44637 15.22 5.06929C15.47 5.69221 15.6 6.37175 15.6 7.11925H12.59C12.59 6.76815 12.54 6.45103 12.44 6.15656C12.35 5.85077 12.2 5.6016 12 5.38641C11.8 5.17122 11.55 5.01266 11.25 4.88807C10.95 4.77482 10.59 4.70686 10.19 4.70686C9.8 4.70686 9.45 4.75217 9.16 4.8541C8.87 4.95603 8.63 5.09194 8.44 5.26183C8.25 5.44304 8.1 5.6469 8 5.88474C7.9 6.12258 7.85 6.37175 7.85 6.63225C7.85 7.17588 8.1 7.62891 8.59 8.00266C8.97 8.28581 9.36 8.5463 10 8.79547H5.39C5.34 8.70486 5.28 8.60293 5.24 8.51232ZM19 12.1932V9.92805H1V12.1932H10.62C10.8 12.2725 11.02 12.3518 11.17 12.4197C11.54 12.6123 11.83 12.8048 12.04 12.9973C12.355 13.2861 12.39 13.4051 12.47 13.6429C12.54 13.8694 12.58 14.1299 12.58 14.4244C12.58 14.6849 12.53 14.934 12.44 15.1719C12.35 15.3984 12.21 15.6023 12.02 15.7722C11.83 15.942 11.6 16.0666 11.31 16.1686C11.02 16.2592 10.68 16.3158 10.3 16.3158C9.87 16.3158 9.47 16.2705 9.12 16.1686C8.77 16.0666 8.46 15.9081 8.21 15.6929C7.96 15.4777 7.76 15.1945 7.62 14.8434C7.48 14.4923 7.37 13.9827 7.37 13.473H4.4C4.4 14.0959 4.48 14.7528 4.64 15.2625C4.8 15.7722 5.01 16.2252 5.29 16.6329C5.57 17.0293 5.89 17.3804 6.27 17.6749C6.64 17.9694 7.05 18.2185 7.49 18.4111C7.93 18.6036 8.39 18.7508 8.87 18.8528C9.35 18.9434 9.83 19 10.31 19C11.11 19 11.84 18.8981 12.49 18.6829C13.14 18.4677 13.7 18.1732 14.16 17.7881C14.62 17.4031 14.98 16.9161 15.23 16.3498C15.48 15.7835 15.61 15.1379 15.61 14.4131C15.61 13.7335 15.51 13.1219 15.3 12.5896C15.25 12.465 15.19 12.3291 15.13 12.2159H19V12.1932Z" fill="#D9D9D9" fill-opacity="0.5"/>
</svg>
